<?xml version="1.0" encoding="UTF-8" standalone="no"?>
<!-- Created with Inkscape (http://www.inkscape.org/) -->

<svg
   xmlns:dc="http://purl.org/dc/elements/1.1/"
   xmlns:cc="http://creativecommons.org/ns#"
   xmlns:rdf="http://www.w3.org/1999/02/22-rdf-syntax-ns#"
   xmlns:svg="http://www.w3.org/2000/svg"
   xmlns="http://www.w3.org/2000/svg"
   xmlns:sodipodi="http://sodipodi.sourceforge.net/DTD/sodipodi-0.dtd"
   xmlns:inkscape="http://www.inkscape.org/namespaces/inkscape"
   width="744.09448819"
   height="1052.3622047"
   id="svg4067"
   version="1.1"
   inkscape:version="0.48.2 r9819"
   sodipodi:docname="New document 12">
  <defs
     id="defs4069" />
  <sodipodi:namedview
     id="base"
     pagecolor="#ffffff"
     bordercolor="#666666"
     borderopacity="1.0"
     inkscape:pageopacity="0.0"
     inkscape:pageshadow="2"
     inkscape:zoom="0.35"
     inkscape:cx="375"
     inkscape:cy="520"
     inkscape:document-units="px"
     inkscape:current-layer="layer1"
     showgrid="false"
     inkscape:window-width="469"
     inkscape:window-height="425"
     inkscape:window-x="150"
     inkscape:window-y="150"
     inkscape:window-maximized="0" />
  <metadata
     id="metadata4072">
    <rdf:RDF>
      <cc:Work
         rdf:about="">
        <dc:format>image/svg+xml</dc:format>
        <dc:type
           rdf:resource="http://purl.org/dc/dcmitype/StillImage" />
        <dc:title></dc:title>
      </cc:Work>
    </rdf:RDF>
  </metadata>
  <g
     inkscape:label="Layer 1"
     inkscape:groupmode="layer"
     id="layer1">
    <g
       id="g4048"
       transform="translate(7.7118826,-226.40407)">
      <path
         id="path3971"
         d="m 398.11401,771.79714 c -2.49872,0.0616 -5.11315,0.51869 -7.71875,1.40625 -10.42241,3.55024 -16.75503,12.6853 -14.125,20.40625 2.63003,7.72095 13.20259,11.08149 23.625,7.53125 10.42241,-3.55024 16.75503,-12.6853 14.125,-20.40625 -1.97252,-5.79071 -8.41008,-9.12242 -15.90625,-8.9375 z m 5.75,4.03125 c 1.13795,-0.054 2.10663,0.21937 2.8125,0.84375 2.82349,2.49751 0.46303,9.78722 -5.28125,16.28125 -5.74428,6.49403 -12.70776,9.74751 -15.53125,7.25 -2.82349,-2.49751 -0.46303,-9.78722 5.28125,-16.28125 4.30821,-4.87053 9.30489,-7.93178 12.71875,-8.09375 z"
         style="fill:#000001;fill-opacity:0.978836;fill-rule:nonzero;stroke:#000006;stroke-width:5.0018115;stroke-linecap:round;stroke-linejoin:round;stroke-miterlimit:4;stroke-opacity:1;stroke-dasharray:none"
         inkscape:connector-curvature="0" />
      <path
         sodipodi:nodetypes="cc"
         style="fill:#000000;stroke:#000000;stroke-width:6;stroke-linecap:butt;stroke-linejoin:miter;stroke-miterlimit:4;stroke-opacity:1;stroke-dasharray:none"
         d="M 413.63667,784.86181 412.2014,652.61905"
         id="path3973"
         inkscape:connector-curvature="0" />
    </g>
  </g>
</svg>
