<?xml version="1.0" encoding="UTF-8" standalone="no"?>
<!-- Created with Inkscape (http://www.inkscape.org/) -->

<svg
   xmlns:dc="http://purl.org/dc/elements/1.1/"
   xmlns:cc="http://creativecommons.org/ns#"
   xmlns:rdf="http://www.w3.org/1999/02/22-rdf-syntax-ns#"
   xmlns:svg="http://www.w3.org/2000/svg"
   xmlns="http://www.w3.org/2000/svg"
   xmlns:sodipodi="http://sodipodi.sourceforge.net/DTD/sodipodi-0.dtd"
   xmlns:inkscape="http://www.inkscape.org/namespaces/inkscape"
   width="1280"
   height="720"
   id="svg3892"
   version="1.1"
   inkscape:version="0.48.2 r9819"
   sodipodi:docname="staff.svg"
   inkscape:export-filename="C:\Users\Julian Ceipek\Development\Piano-Prototype\PianoGame\PianoGame\PianoGameContent\staff.png"
   inkscape:export-xdpi="90"
   inkscape:export-ydpi="90">
  <defs
     id="defs3894">
    <inkscape:path-effect
       is_visible="true"
       id="path-effect3043"
       effect="spiro" />
    <inkscape:path-effect
       effect="spiro"
       id="path-effect3039"
       is_visible="true" />
    <inkscape:path-effect
       effect="skeletal"
       id="path-effect3033"
       is_visible="true"
       pattern="M 0,0 0,10 10,5 z"
       copytype="single_stretched"
       prop_scale="1"
       scale_y_rel="false"
       spacing="0"
       normal_offset="0"
       tang_offset="0"
       prop_units="false"
       vertical_pattern="false"
       fuse_tolerance="0" />
    <inkscape:path-effect
       effect="spiro"
       id="path-effect3031"
       is_visible="true" />
    <inkscape:path-effect
       effect="spiro"
       id="path-effect3027"
       is_visible="true" />
    <inkscape:path-effect
       effect="spiro"
       id="path-effect3023"
       is_visible="true" />
    <inkscape:path-effect
       effect="spiro"
       id="path-effect3019"
       is_visible="true" />
    <inkscape:path-effect
       effect="spiro"
       id="path-effect3015"
       is_visible="true" />
    <inkscape:path-effect
       effect="spiro"
       id="path-effect3011"
       is_visible="true" />
    <inkscape:path-effect
       effect="spiro"
       id="path-effect3007"
       is_visible="true" />
  </defs>
  <sodipodi:namedview
     id="base"
     pagecolor="#ffffff"
     bordercolor="#666666"
     borderopacity="1.0"
     inkscape:pageopacity="0.0"
     inkscape:pageshadow="2"
     inkscape:zoom="0.35"
     inkscape:cx="686.61694"
     inkscape:cy="521.22082"
     inkscape:document-units="px"
     inkscape:current-layer="layer1"
     showgrid="false"
     inkscape:window-width="1280"
     inkscape:window-height="1002"
     inkscape:window-x="1672"
     inkscape:window-y="18"
     inkscape:window-maximized="1"
     width="1280px" />
  <metadata
     id="metadata3897">
    <rdf:RDF>
      <cc:Work
         rdf:about="">
        <dc:format>image/svg+xml</dc:format>
        <dc:type
           rdf:resource="http://purl.org/dc/dcmitype/StillImage" />
        <dc:title />
      </cc:Work>
    </rdf:RDF>
  </metadata>
  <g
     inkscape:label="Layer 1"
     inkscape:groupmode="layer"
     id="layer1"
     transform="translate(0,-332.36239)">
    <path
       style="fill:none;stroke:#000000;stroke-width:8.65251541;stroke-linecap:butt;stroke-linejoin:miter;stroke-miterlimit:4;stroke-opacity:1;stroke-dasharray:none"
       d="m -16.519556,579.61463 1315.563156,0"
       id="path2991"
       inkscape:connector-curvature="0" />
    <path
       style="fill:none;stroke:#000000;stroke-width:8.65251541;stroke-linecap:butt;stroke-linejoin:miter;stroke-miterlimit:4;stroke-opacity:1;stroke-dasharray:none"
       d="m -16.519556,633.40538 1315.563156,0"
       id="path2991-1"
       inkscape:connector-curvature="0" />
    <path
       style="fill:none;stroke:#000000;stroke-width:8.65251541;stroke-linecap:butt;stroke-linejoin:miter;stroke-miterlimit:4;stroke-opacity:1;stroke-dasharray:none"
       d="m -16.519556,687.19614 1315.563156,0"
       id="path2991-7"
       inkscape:connector-curvature="0" />
    <path
       style="fill:none;stroke:#000000;stroke-width:8.65251541;stroke-linecap:butt;stroke-linejoin:miter;stroke-miterlimit:4;stroke-opacity:1;stroke-dasharray:none"
       d="m -16.519556,740.98688 1315.563156,0"
       id="path2991-4"
       inkscape:connector-curvature="0" />
    <path
       style="fill:none;stroke:#000000;stroke-width:8.65251541;stroke-linecap:butt;stroke-linejoin:miter;stroke-miterlimit:4;stroke-opacity:1;stroke-dasharray:none"
       d="m -16.519556,794.77762 1315.563156,0"
       id="path2991-0"
       inkscape:connector-curvature="0" />
    <path
       style="fill:none;stroke:#000000;stroke-width:17.28120232;stroke-linecap:round;stroke-linejoin:round;stroke-miterlimit:4;stroke-opacity:1;stroke-dasharray:none"
       d="m -213.98516,834.96317 c -9.15044,26.53393 33.51927,57.00773 38.68419,9.10217 -129.30262,-459.66274 52.44652,-355.93366 -40.95973,-200.24763 -109.56542,77.64705 -39.66939,164.76485 22.75541,157.01233 61.63671,-7.65465 39.33703,-137.15387 -13.65324,-104.6749 -40.83864,25.03095 -24.41533,61.43962 -9.10217,77.36841"
       id="path3040"
       inkscape:connector-curvature="0"
       sodipodi:nodetypes="cccssc" />
    <rect
       style="fill:#000000;fill-opacity:1;stroke-width:9.30000019;stroke-miterlimit:4;stroke-dasharray:none"
       id="rect3033"
       width="7.1428571"
       height="370.00003"
       x="236.57144"
       y="508.07666" />
    <path
       inkscape:connector-curvature="0"
       style="font-size:medium;font-style:normal;font-variant:normal;font-weight:normal;font-stretch:normal;text-indent:0;text-align:start;text-decoration:none;line-height:normal;letter-spacing:normal;word-spacing:normal;text-transform:none;direction:ltr;block-progression:tb;writing-mode:lr-tb;text-anchor:start;baseline-shift:baseline;color:#000000;fill:#000000;fill-opacity:1;stroke:none;stroke-width:6;marker:none;visibility:visible;display:inline;overflow:visible;enable-background:accumulate;font-family:Sans;-inkscape-font-specification:Sans"
       d="m 1443.2455,583.72802 c -3.7153,0.0916 -7.6181,0.78513 -11.4924,2.10484 -12.6844,4.32072 -21.2484,14.21158 -21.8061,23.95304 l -0.084,0 1.8101,178.11123 7.5354,-0.0835 -1.6419,-162.87221 c 6.9598,4.84426 17.692,6.06574 28.3312,2.44161 15.497,-5.27883 24.9168,-18.87152 21.0062,-30.35175 -2.9329,-8.61017 -12.5123,-13.57752 -23.6583,-13.30257 z"
       id="path3812-5"
       inkscape:export-filename="C:\Users\Julian Ceipek\Development\Piano-Prototype\PianoGame\PianoGame\PianoGameContent\quarter_note.png"
       inkscape:export-xdpi="90"
       inkscape:export-ydpi="90" />
    <path
       style="fill:#000000;fill-opacity:1;fill-rule:nonzero;stroke:none"
       d="m 1517.3755,583.81155 c -1.9829,-0.0322 -4.0134,0.10677 -6.0741,0.38498 -16.486,2.22592 -28.5123,13.92322 -26.8633,26.13608 1.649,12.21284 16.3659,20.32015 32.8519,18.09421 16.4859,-2.22594 28.5122,-13.96601 26.8633,-26.17885 -1.4429,-10.68625 -12.897,-18.21102 -26.7778,-18.43642 z m -14.886,5.26143 c 4.3757,-0.30327 10.0771,1.61405 15.656,5.64642 9.9182,7.16865 15.7778,18.35418 13.0894,25.02391 -2.6883,6.66973 -12.9242,6.27036 -22.8423,-0.89829 -9.9182,-7.16866 -15.7778,-18.39698 -13.0894,-25.06669 1.1761,-2.91801 3.783,-4.46947 7.1863,-4.70535 z"
       id="path3783"
       inkscape:connector-curvature="0"
       inkscape:export-filename="C:\Users\Julian Ceipek\Development\Piano-Prototype\PianoGame\PianoGame\PianoGameContent\whole_note.png"
       inkscape:export-xdpi="90"
       inkscape:export-ydpi="90" />
    <path
       inkscape:connector-curvature="0"
       style="font-size:medium;font-style:normal;font-variant:normal;font-weight:normal;font-stretch:normal;text-indent:0;text-align:start;text-decoration:none;line-height:normal;letter-spacing:normal;word-spacing:normal;text-transform:none;direction:ltr;block-progression:tb;writing-mode:lr-tb;text-anchor:start;baseline-shift:baseline;color:#000000;fill:#000000;fill-opacity:1;stroke:none;stroke-width:6;marker:none;visibility:visible;display:inline;overflow:visible;enable-background:accumulate;font-family:Sans;-inkscape-font-specification:Sans"
       d="m 1379.7396,583.72803 c -3.7154,0.0916 -7.6182,0.78513 -11.4924,2.10484 -12.6844,4.32073 -21.2485,14.21159 -21.8061,23.95304 l -0.084,0 1.8101,178.11123 7.5353,-0.0835 -1.6417,-162.87221 c 6.9597,4.84426 17.6918,6.06574 28.3311,2.44161 15.497,-5.27882 24.9168,-18.87151 21.0062,-30.35174 -2.9329,-8.61018 -12.5123,-13.57753 -23.6583,-13.30257 z m 5.8935,5.43048 c 4.8874,-0.12824 9.0558,1.04472 11.5345,3.62032 5.6657,5.88706 0.4795,16.87015 -11.5766,24.5003 -12.0561,7.63019 -26.412,9.04433 -32.0777,3.15726 -5.6657,-5.88708 -0.5216,-16.87014 11.5345,-24.5003 6.7816,-4.29198 14.3015,-6.61263 20.5853,-6.77758 z"
       id="path3812-2"
       inkscape:export-filename="C:\Users\Julian Ceipek\Development\Piano-Prototype\PianoGame\PianoGame\PianoGameContent\half_note.png"
       inkscape:export-xdpi="90"
       inkscape:export-ydpi="90" />
    <path
       style="fill:none;stroke:#ff0000;stroke-width:1px;stroke-linecap:butt;stroke-linejoin:miter;stroke-opacity:1"
       d="m -380,927.71953 c -2.8401,5.39844 -7.03512,10.04905 -11.98789,13.60986 -4.95278,3.56082 -10.65087,6.04285 -16.58354,7.46156 -7.39997,1.76959 -15.21525,1.88792 -22.61761,0.12831 -7.40235,-1.75961 -14.37391,-5.41543 -19.88239,-10.66402 -6.21794,-5.92458 -10.52587,-13.95901 -11.42857,-22.5 -0.76418,-7.23033 0.98403,-14.78892 5.27248,-20.6601 4.28846,-5.87117 11.17262,-9.89926 18.43403,-10.26463 7.12943,-0.35873 14.34953,2.90207 18.78995,8.49135 4.44041,5.58929 5.98383,13.36262 4.01037,20.22286 -2.04616,7.11298 -7.63876,12.91613 -14.32134,16.09802 -2.99445,1.4258 -6.21554,2.37433 -9.50481,2.79893 1.43749,2.86013 3.68829,5.30586 6.41947,6.9754 3.65785,2.23601 8.03689,3.03554 12.3235,3.10331 7.38108,0.1167 14.80609,-1.86433 21.06256,-5.78231 6.25647,-3.91798 11.30656,-9.77711 14.10901,-16.60648 1.22343,-2.98142 2.02302,-6.12994 2.46368,-9.32234 1.39051,-10.07357 -0.78405,-20.26007 -2.94306,-30.19732 -10.85719,-49.97221 -21.6182,-99.9656 -32.12002,-150.0137 -2.84582,-13.56223 -5.67264,-27.12857 -8.59922,-40.6736 -5.59478,-25.89416 -11.57819,-51.88976 -12.5633,-78.36312 -0.98511,-26.47335 3.35834,-53.81181 17.11242,-76.45324 1.71815,-2.82834 3.61659,-5.61784 6.19656,-7.69035 1.28998,-1.03625 2.7441,-1.88172 4.3172,-2.39481 1.57309,-0.5131 3.26789,-0.68701 4.89839,-0.40528 2.54486,0.43972 4.80587,1.96417 6.55286,3.8662 1.74698,1.90203 3.03464,4.17393 4.24079,6.45754 15.02925,28.45487 19.45487,62.45229 11.71631,93.68805 -5.66639,22.87169 -17.71031,44.11228 -34.34452,60.80136 -9.26233,9.29288 -19.85859,17.15488 -29.35859,26.20465 -10.36872,9.87732 -19.47782,21.2832 -25.38995,34.32615 -5.91213,13.04295 -8.49251,27.82062 -5.8057,41.88664 2.06264,10.79838 7.20298,20.96107 14.50957,29.17528 7.30659,8.21421 16.74499,14.47838 27.07571,18.23812 14.39953,5.24053 30.83159,5.48914 44.85332,-0.69152 7.01087,-3.09034 13.35215,-7.74153 18.25787,-13.62679 4.90573,-5.88526 8.35369,-13.00691 9.73808,-20.54255 1.44106,-7.84414 0.61615,-16.10953 -2.4694,-23.46388 -3.08555,-7.35435 -8.43674,-13.76051 -15.19517,-17.99498 -6.75843,-4.23447 -14.90083,-6.25771 -22.84465,-5.54863 -7.94383,0.70908 -15.6366,4.16932 -21.34742,9.73652 -6.71083,6.54206 -10.54809,16.05941 -9.77627,25.39954 0.38591,4.67007 1.88897,9.25148 4.39903,13.20851 2.51007,3.95702 6.02764,7.27854 10.15267,9.50172 1.1941,0.64356 2.4633,1.215 3.41336,2.1832 0.47503,0.48411 0.86143,1.06665 1.0529,1.71731 0.19148,0.65065 0.17754,1.37214 -0.1051,1.98868 -0.31327,0.68334 -0.94099,1.19785 -1.64985,1.44807 -0.70885,0.25023 -1.49119,0.25022 -2.22357,0.0808 -1.46475,-0.33892 -2.68994,-1.30663 -3.88117,-2.22388 -4.68817,-3.60993 -9.68958,-6.86099 -13.88546,-11.03294 -6.95516,-6.91551 -11.41664,-16.25209 -12.59642,-25.98897 -1.17978,-9.73687 0.90008,-19.81498 5.68988,-28.37397 4.78979,-8.559 12.24532,-15.57304 21.00443,-19.98627 8.7591,-4.41323 18.78084,-6.23083 28.549,-5.34677 12.19517,1.10371 23.97571,6.45846 32.77648,14.97238 8.80076,8.51392 14.54933,20.13581 15.90449,32.3056 0.6557,5.88839 0.31125,11.86883 -0.78073,17.69211 -2.66334,14.20299 -9.87703,27.51759 -20.3246,37.5009 -10.44758,9.98331 -24.07819,16.5853 -38.38943,18.587 -16.24735,2.27251 -33.14985,-1.3996 -47.35675,-9.60354 -14.20689,-8.20395 -25.71473,-20.81088 -33.23846,-35.38943 -8.70068,-16.8591 -12.1145,-36.47613 -9.1564,-55.21594 3.34717,-21.20467 14.51021,-40.47969 28.03994,-57.14665 13.52973,-16.66697 29.49943,-31.15784 44.38206,-46.62874 9.48721,-9.86221 18.62406,-20.24746 25.23557,-32.22904 6.61151,-11.98158 10.59249,-25.76357 9.12846,-39.36971 -0.27562,-2.56146 -0.74827,-5.1267 -1.75814,-7.49677 -1.00987,-2.37007 -2.59136,-4.54772 -4.75023,-5.95354 -2.21989,-1.44555 -4.96313,-2.00244 -7.59952,-1.74367 -2.63639,0.25878 -5.16401,1.30277 -7.34366,2.80831 -4.35929,3.01108 -7.24295,7.7057 -9.58696,12.45709 -5.60212,11.3557 -8.84535,23.8581 -9.56588,36.49996 -1.06568,18.69771 3.3079,37.22279 7.37845,55.50312 3.08276,13.84427 6.00787,27.72306 8.98442,41.59056 7.09761,33.06718 14.48913,66.07703 20.78196,99.30676 3.25575,17.19225 6.22033,34.45667 10.49377,51.42461 3.79213,15.05687 8.64629,30.11639 8.55475,45.64318 -0.0457,7.75711 -1.38827,15.63485 -5,22.5"
       id="path3037"
       inkscape:path-effect="#path-effect3039"
       inkscape:original-d="m -380,927.71953 c 0,0 -27.97631,49.95636 -28.57143,21.07142 -0.73008,-35.43589 -58.12985,-1.13398 -42.5,-10.53571 18.56091,-11.16483 -23.55339,-24.93724 -11.42857,-22.5 3.7658,0.75697 13.67774,-30.69367 23.70651,-30.92473 10.02876,-0.23106 19.99578,27.36461 22.80032,28.71421 5.60908,2.69919 -16.8954,15.2159 -14.32134,16.09802 6.96134,2.38563 -10.10446,2.42755 -9.50481,2.79893 0.71706,1.19327 5.60602,5.22545 6.41947,6.9754 0.81344,1.74994 11.47994,1.03906 12.3235,3.10331 0.84356,2.06424 34.36418,-24.52495 35.17157,-22.38879 0.8074,2.13616 1.75872,-11.28804 2.46368,-9.32234 0.70495,1.96569 -1.76788,-31.34528 -2.94306,-30.19732 -2.32089,2.26714 -25.99271,-150.91132 -32.12002,-150.0137 -0.46841,0.0686 -4.59236,-20.29392 -8.59922,-40.6736 -2.00343,-10.18984 -0.7633,-115.74112 4.54912,-154.81636 2.65621,-19.53762 9.00906,-5.31338 15.41215,-10.49044 3.20155,-2.58853 14.36207,-31.27739 10.79365,10.32374 -1.63162,19.02168 17.67773,54.49293 11.71631,93.68805 -0.5575,3.66549 -33.91517,58.01018 -34.34452,60.80136 -2.5102,16.3186 -14.99817,10.26574 -29.35859,26.20465 -3.59011,3.98473 -27.65438,70.41538 -31.19565,76.21279 -3.54126,5.79741 44.51191,41.67588 41.58528,47.4134 -2.92664,5.73752 74.59549,-38.66591 72.84927,-34.86086 -0.8731,1.90252 -52.1883,-24.76784 -61.85664,-37.27097 -2.41709,-3.12578 3.77322,44.52228 4.77543,48.10977 1.00222,3.58749 1.81634,-0.45702 4.36116,5.88919 2.54483,6.3462 -9.96535,-5.84543 -7.75459,-0.69505 1.10538,2.57519 -6.43044,-2.65698 -13.88546,-11.03294 -3.72751,-4.18798 39.52947,-63.17976 42.64689,-79.69598 1.55872,-8.25811 36.74325,30.08481 48.68097,47.27798 2.98443,4.29829 2.14986,10.62293 -0.78073,17.69211 -2.93059,7.06918 -53.31436,48.81147 -58.71403,56.0879 -5.39967,7.27642 -76.1724,-49.91301 -80.59521,-44.99297 -2.2114,2.46002 -12.92461,-28.9276 -9.1564,-55.21594 1.8841,-13.14416 47.38857,-70.63851 72.422,-103.77539 12.51672,-16.56844 31.07639,-54.72608 34.36403,-71.59875 1.64382,-8.43634 4.55892,-24.85501 -6.50837,-13.45031 -5.53364,5.70235 -17.15217,2.46769 -24.53014,13.52173 -1.84449,2.7635 -11.43734,15.50488 -9.56588,36.49996 0.93573,10.49755 4.02326,36.89781 7.37845,55.50312 3.35519,18.60531 6.97804,29.41567 8.98442,41.59056 4.01277,24.34979 17.72039,85.40772 20.78196,99.30676 1.53078,6.94952 6.3822,32.02004 10.49377,51.42461 4.11158,19.40456 7.94464,33.02733 8.55475,45.64318 0.56709,11.72623 -5,22.5 -5,22.5 z"
       inkscape:connector-curvature="0"
       sodipodi:nodetypes="cssssssccssssssssssssssssssssssssssssssssssssc" />
    <path
       sodipodi:nodetypes="cssssssccssssssssssssssssssssssssssssssssssssc"
       inkscape:connector-curvature="0"
       inkscape:original-d="m 176.89622,868.85015 c 0,0 -26.56805,47.44167 -27.13321,20.01073 -0.69333,-33.65213 -55.203727,-1.0769 -40.36065,-10.00537 17.6266,-10.60282 -22.367767,-23.68195 -10.853277,-21.3674 3.576227,0.71887 12.989227,-29.14862 22.513177,-29.36805 9.52393,-0.21943 18.98923,25.98714 21.6526,27.2688 5.32673,2.56332 -16.04492,14.44997 -13.60044,15.28769 6.61093,2.26554 -9.59582,2.30535 -9.02636,2.65803 0.68097,1.13321 5.32383,4.96242 6.09633,6.62428 0.7725,1.66185 10.90207,0.98676 11.70317,2.9471 0.80109,1.96033 32.63436,-23.29043 33.40111,-21.26179 0.76676,2.02863 1.67019,-10.71983 2.33967,-8.85308 0.66946,1.86674 -1.67889,-29.76743 -2.79492,-28.67726 -2.20406,2.15302 -24.6843,-143.3148 -30.50317,-142.46236 -0.44483,0.0652 -4.36119,-19.27237 -8.16636,-38.62619 -1.90258,-9.6769 -0.72487,-109.91498 4.32013,-147.02326 2.5225,-18.55415 8.55557,-5.04592 14.63634,-9.96238 3.04039,-2.45823 13.63912,-29.70296 10.25032,9.80407 -1.54949,18.06417 16.78788,51.74988 11.12654,88.97201 -0.52944,3.48098 -32.20796,55.09008 -32.6157,57.74076 -2.38384,15.49716 -14.24319,9.74899 -27.88074,24.88557 -3.4094,3.78415 -26.262327,66.87084 -29.625337,72.37642 -3.363,5.50558 42.271287,39.57801 39.491977,45.02672 -2.77932,5.44871 70.84052,-36.71956 69.18221,-33.10605 -0.82915,1.80676 -49.56127,-23.52108 -58.74293,-35.39483 -2.29542,-2.96844 3.58329,42.28113 4.53505,45.68803 0.95177,3.40691 1.72491,-0.43401 4.14163,5.59275 2.41673,6.02674 -9.46372,-5.55119 -7.36424,-0.66007 1.04973,2.44556 -6.10675,-2.52323 -13.1865,-10.47756 -3.53988,-3.97717 37.53965,-59.99944 40.50014,-75.68428 1.48026,-7.84241 34.89368,28.57042 46.23049,44.89812 2.8342,4.08193 2.04164,10.0882 -0.74143,16.80153 -2.78307,6.71334 -50.63064,46.35442 -55.75851,53.26457 -5.12786,6.91014 -72.338057,-47.40051 -76.538227,-42.72813 -2.10008,2.33619 -12.27402,-27.47145 -8.69549,-52.4365 1.78926,-12.48251 45.003137,-67.08273 68.776447,-98.55158 11.88665,-15.73442 29.51207,-51.9713 32.63422,-67.99464 1.56108,-8.01167 4.32944,-23.60386 -6.18075,-12.77325 -5.25509,5.41531 -16.28877,2.34347 -23.29535,12.84108 -1.75164,2.62439 -10.86161,14.7244 -9.08436,34.66264 0.88863,9.96912 3.82074,35.04046 7.00704,52.70922 3.1863,17.66876 6.62678,27.93495 8.53216,39.49699 3.81078,23.12408 16.82839,81.10849 19.73585,94.30789 1.45372,6.5997 6.06093,30.40822 9.96554,48.83601 3.90461,18.42778 7.54472,31.36482 8.12412,43.34561 0.53854,11.13596 -4.74831,21.36741 -4.74831,21.36741 z"
       inkscape:path-effect="#path-effect3043"
       id="path3041"
       d="m 176.89622,868.85015 c -2.69714,5.1267 -6.68099,9.5432 -11.38445,12.92477 -4.70346,3.38157 -10.11472,5.73866 -15.74876,7.08596 -7.02748,1.68052 -14.44935,1.79288 -21.47909,0.12185 -7.02974,-1.67103 -13.65036,-5.14283 -18.88156,-10.12722 -5.90494,-5.62635 -9.996017,-13.25634 -10.853277,-21.3674 -0.725709,-6.86637 0.934494,-14.04448 5.007077,-19.62012 4.07259,-5.57563 10.61021,-9.40095 17.5061,-9.74793 6.77055,-0.34067 13.6272,2.75598 17.8441,8.06392 4.21689,5.30794 5.68261,12.68997 3.8085,19.20488 -1.94316,6.75493 -7.25425,12.26597 -13.60044,15.28769 -2.84371,1.35402 -5.90266,2.25481 -9.02636,2.65803 1.36513,2.71616 3.50263,5.03877 6.09633,6.62428 3.47373,2.12346 7.63233,2.88274 11.70317,2.9471 7.00954,0.11082 14.06078,-1.77049 20.00231,-5.49125 5.94154,-3.72076 10.73742,-9.28495 13.3988,-15.77054 1.16185,-2.83134 1.92119,-5.82137 2.33967,-8.85308 1.32051,-9.56649 -0.74458,-19.24022 -2.79492,-28.67726 -10.31069,-47.45672 -20.52998,-94.93356 -30.50317,-142.46236 -2.70257,-12.87954 -5.38709,-25.76299 -8.16636,-38.62619 -5.31315,-24.5907 -10.99537,-49.27775 -11.93089,-74.4185 -0.93552,-25.14074 3.1893,-51.10305 16.25102,-72.60476 1.63166,-2.68597 3.43453,-5.33505 5.88464,-7.30324 1.22505,-0.98409 2.60597,-1.78699 4.09988,-2.27427 1.49391,-0.48727 3.1034,-0.65242 4.65182,-0.38487 2.41676,0.41759 4.56395,1.8653 6.223,3.67159 1.65905,1.80628 2.88188,3.96382 4.02732,6.13248 14.2727,27.02252 18.47556,59.30859 11.12654,88.97201 -5.38116,21.72038 -16.81882,41.89177 -32.6157,57.74076 -8.79608,8.8251 -18.85895,16.29134 -27.88074,24.88557 -9.84678,9.38012 -18.497355,20.21186 -24.111882,32.59825 -5.614526,12.3864 -8.065017,26.4202 -5.513455,39.77817 1.958816,10.25481 6.840395,19.90594 13.779191,27.70666 6.938796,7.80073 15.902086,13.74958 25.712786,17.32006 13.67469,4.97674 29.2796,5.21283 42.59551,-0.65672 6.65796,-2.93477 12.68003,-7.35183 17.33882,-12.94085 4.65878,-5.58901 7.93318,-12.35216 9.24788,-19.50848 1.36852,-7.44928 0.58513,-15.29861 -2.3451,-22.28277 -2.93023,-6.98415 -8.01205,-13.06783 -14.43028,-17.08915 -6.41823,-4.02132 -14.15076,-5.94272 -21.69471,-5.26932 -7.54395,0.67339 -14.84949,3.95945 -20.27284,9.24641 -6.37302,6.21275 -10.01711,15.25101 -9.28415,24.12098 0.36649,4.43499 1.79389,8.78579 4.1776,12.54362 2.38371,3.75784 5.72421,6.91216 9.6416,9.02343 1.13399,0.61116 2.33931,1.15384 3.24155,2.07331 0.45111,0.45974 0.81806,1.01296 0.99989,1.63086 0.18184,0.6179 0.16861,1.30307 -0.0998,1.88858 -0.2975,0.64894 -0.89362,1.13755 -1.5668,1.37518 -0.67317,0.23763 -1.41613,0.23761 -2.11164,0.0767 -1.39102,-0.32186 -2.55454,-1.24085 -3.6858,-2.11193 -4.45218,-3.42822 -9.20183,-6.51562 -13.1865,-10.47756 -6.60506,-6.5674 -10.84197,-15.434 -11.96236,-24.68074 -1.12039,-9.24675 0.85477,-18.81755 5.40346,-26.94571 4.54869,-8.12816 11.62892,-14.78912 19.94712,-18.9802 8.3182,-4.19108 17.83546,-5.91719 27.11192,-5.07763 11.58129,1.04815 22.76883,6.13336 31.12659,14.2187 8.35776,8.08535 13.81696,19.12222 15.1039,30.67942 0.62269,5.59198 0.29558,11.27138 -0.74143,16.80153 -2.52928,13.48805 -9.37984,26.13242 -19.30151,35.6132 -9.92168,9.48077 -22.86615,15.75043 -36.457,17.65137 -15.42949,2.15811 -31.48116,-1.32915 -44.97291,-9.12013 -13.491753,-7.79098 -24.420317,-19.7633 -31.565317,-33.608 -8.262707,-16.01045 -11.504682,-34.64 -8.69549,-52.4365 3.178685,-20.13727 13.779798,-38.44203 26.628477,-54.27002 12.84868,-15.82799 28.0145,-29.58942 42.14797,-44.28156 9.00964,-9.36577 17.68657,-19.22825 23.96527,-30.60671 6.27869,-11.37846 10.05928,-24.46669 8.66895,-37.38793 -0.26174,-2.43253 -0.71061,-4.86864 -1.66964,-7.1194 -0.95903,-2.25077 -2.46091,-4.31879 -4.51111,-5.65385 -2.10814,-1.37279 -4.7133,-1.90164 -7.21698,-1.6559 -2.50368,0.24575 -4.90406,1.23719 -6.97399,2.66694 -4.13986,2.85952 -6.87837,7.31782 -9.10438,11.83004 -5.32012,10.78409 -8.4001,22.65714 -9.08436,34.66264 -1.01204,17.75651 3.14139,35.34908 7.00704,52.70922 2.92758,13.14738 5.70544,26.32755 8.53216,39.49699 6.74033,31.40265 13.75979,62.75087 19.73585,94.30789 3.09187,16.32683 5.90722,32.7222 9.96554,48.83601 3.60124,14.29895 8.21105,28.6004 8.12412,43.34561 -0.0434,7.36664 -1.31838,14.84783 -4.74831,21.36741"
       style="fill:#000000;stroke:none" />
  </g>
</svg>
