<?xml version="1.0" encoding="UTF-8" standalone="no"?>
<!-- Created with Inkscape (http://www.inkscape.org/) -->

<svg
   xmlns:dc="http://purl.org/dc/elements/1.1/"
   xmlns:cc="http://creativecommons.org/ns#"
   xmlns:rdf="http://www.w3.org/1999/02/22-rdf-syntax-ns#"
   xmlns:svg="http://www.w3.org/2000/svg"
   xmlns="http://www.w3.org/2000/svg"
   xmlns:sodipodi="http://sodipodi.sourceforge.net/DTD/sodipodi-0.dtd"
   xmlns:inkscape="http://www.inkscape.org/namespaces/inkscape"
   width="1280"
   height="720"
   id="svg3892"
   version="1.1"
   inkscape:version="0.48.2 r9819"
   sodipodi:docname="startScreen.svg"
   inkscape:export-filename="C:\Users\Julian Ceipek\Development\Piano-Prototype\PianoGame\PianoGame\PianoGameContent\splash.png"
   inkscape:export-xdpi="90"
   inkscape:export-ydpi="90">
  <defs
     id="defs3894">
    <inkscape:path-effect
       effect="spiro"
       id="path-effect3152"
       is_visible="true" />
    <inkscape:path-effect
       is_visible="true"
       id="path-effect3043"
       effect="spiro" />
    <inkscape:path-effect
       effect="spiro"
       id="path-effect3039"
       is_visible="true" />
    <inkscape:path-effect
       effect="skeletal"
       id="path-effect3033"
       is_visible="true"
       pattern="M 0,0 0,10 10,5 z"
       copytype="single_stretched"
       prop_scale="1"
       scale_y_rel="false"
       spacing="0"
       normal_offset="0"
       tang_offset="0"
       prop_units="false"
       vertical_pattern="false"
       fuse_tolerance="0" />
    <inkscape:path-effect
       effect="spiro"
       id="path-effect3031"
       is_visible="true" />
    <inkscape:path-effect
       effect="spiro"
       id="path-effect3027"
       is_visible="true" />
    <inkscape:path-effect
       effect="spiro"
       id="path-effect3023"
       is_visible="true" />
    <inkscape:path-effect
       effect="spiro"
       id="path-effect3019"
       is_visible="true" />
    <inkscape:path-effect
       effect="spiro"
       id="path-effect3015"
       is_visible="true" />
    <inkscape:path-effect
       effect="spiro"
       id="path-effect3011"
       is_visible="true" />
    <inkscape:path-effect
       effect="spiro"
       id="path-effect3007"
       is_visible="true" />
  </defs>
  <sodipodi:namedview
     id="base"
     pagecolor="#ffffff"
     bordercolor="#666666"
     borderopacity="1.0"
     inkscape:pageopacity="0.0"
     inkscape:pageshadow="2"
     inkscape:zoom="0.49497475"
     inkscape:cx="574.05869"
     inkscape:cy="559.48365"
     inkscape:document-units="px"
     inkscape:current-layer="layer1"
     showgrid="false"
     inkscape:window-width="1680"
     inkscape:window-height="988"
     inkscape:window-x="-8"
     inkscape:window-y="-8"
     inkscape:window-maximized="0"
     width="1280px" />
  <metadata
     id="metadata3897">
    <rdf:RDF>
      <cc:Work
         rdf:about="">
        <dc:format>image/svg+xml</dc:format>
        <dc:type
           rdf:resource="http://purl.org/dc/dcmitype/StillImage" />
        <dc:title></dc:title>
      </cc:Work>
    </rdf:RDF>
  </metadata>
  <g
     inkscape:label="Layer 1"
     inkscape:groupmode="layer"
     id="layer1"
     transform="translate(0,-332.36239)">
    <path
       style="fill:none;stroke:#000000;stroke-width:5.5899272;stroke-linecap:butt;stroke-linejoin:miter;stroke-miterlimit:4;stroke-opacity:1;stroke-dasharray:none"
       d="m 394.09136,-62.254918 849.91504,0"
       id="path2991"
       inkscape:connector-curvature="0" />
    <path
       style="fill:none;stroke:#000000;stroke-width:5.5899272;stroke-linecap:butt;stroke-linejoin:miter;stroke-miterlimit:4;stroke-opacity:1;stroke-dasharray:none"
       d="m 394.09136,-27.503598 849.91504,0"
       id="path2991-1"
       inkscape:connector-curvature="0" />
    <path
       style="fill:none;stroke:#000000;stroke-width:5.5899272;stroke-linecap:butt;stroke-linejoin:miter;stroke-miterlimit:4;stroke-opacity:1;stroke-dasharray:none"
       d="m 394.09136,7.2477416 849.91504,0"
       id="path2991-7"
       inkscape:connector-curvature="0" />
    <path
       style="fill:none;stroke:#000000;stroke-width:5.5899272;stroke-linecap:butt;stroke-linejoin:miter;stroke-miterlimit:4;stroke-opacity:1;stroke-dasharray:none"
       d="m 394.09136,41.999062 849.91504,0"
       id="path2991-4"
       inkscape:connector-curvature="0" />
    <path
       style="fill:none;stroke:#000000;stroke-width:5.5899272;stroke-linecap:butt;stroke-linejoin:miter;stroke-miterlimit:4;stroke-opacity:1;stroke-dasharray:none"
       d="m 394.09136,76.750402 849.91504,0"
       id="path2991-0"
       inkscape:connector-curvature="0" />
    <path
       style="fill:none;stroke:#000000;stroke-width:17.28120232;stroke-linecap:round;stroke-linejoin:round;stroke-miterlimit:4;stroke-opacity:1;stroke-dasharray:none"
       d="m -213.98516,834.96317 c -9.15044,26.53393 33.51927,57.00773 38.68419,9.10217 -129.30262,-459.66274 52.44652,-355.93366 -40.95973,-200.24763 -109.56542,77.64705 -39.66939,164.76485 22.75541,157.01233 61.63671,-7.65465 39.33703,-137.15387 -13.65324,-104.6749 -40.83864,25.03095 -24.41533,61.43962 -9.10217,77.36841"
       id="path3040"
       inkscape:connector-curvature="0"
       sodipodi:nodetypes="cccssc" />
    <rect
       style="fill:#999999;fill-opacity:1;stroke-width:9.30000019;stroke-miterlimit:4;stroke-dasharray:none"
       id="rect3033"
       width="10.620367"
       height="827.93707"
       x="-487.1824"
       y="85.447433"
       transform="matrix(0,-1,1,0,0,0)" />
    <path
       inkscape:connector-curvature="0"
       style="font-size:medium;font-style:normal;font-variant:normal;font-weight:normal;font-stretch:normal;text-indent:0;text-align:start;text-decoration:none;line-height:normal;letter-spacing:normal;word-spacing:normal;text-transform:none;direction:ltr;block-progression:tb;writing-mode:lr-tb;text-anchor:start;baseline-shift:baseline;color:#000000;fill:#000000;fill-opacity:1;stroke:none;stroke-width:6;marker:none;visibility:visible;display:inline;overflow:visible;enable-background:accumulate;font-family:Sans;-inkscape-font-specification:Sans"
       d="m 850.32381,-26.967208 c -2.40031,0.0592 -4.92166,0.50724 -7.42466,1.35983 -8.19466,2.79139 -13.72746,9.18135 -14.08773,15.47478 l -0.0546,0 1.16946,115.068138 4.86821,-0.0536 -1.06083,-105.22302836 c 4.49641,3.12960996 11.42997,3.91874996 18.30337,1.57738996 10.01174,-3.41036 16.0974,-12.1918696 13.57097,-19.6086396 -1.89483,-5.56257 -8.08355,-8.7717 -15.28436,-8.59408 z"
       id="path3812-5"
       inkscape:export-filename="C:\Users\Julian Ceipek\Development\Piano-Prototype\PianoGame\PianoGame\PianoGameContent\quarter_note.png"
       inkscape:export-xdpi="90"
       inkscape:export-ydpi="90" />
    <path
       style="fill:#000000;fill-opacity:1;fill-rule:nonzero;stroke:none"
       d="m 898.21517,-26.913228 c -1.28107,-0.0208 -2.59278,0.069 -3.92408,0.24871 -10.65078,1.43805 -18.42032,8.99504 -17.35503,16.8851196 1.06541,7.89006 10.57315,13.12776 21.22393,11.68971 10.65063,-1.43806996 18.42017,-9.0227 17.35488,-16.9127596 -0.93222,-6.90382 -8.33205,-11.76517 -17.2997,-11.91078 z m -9.61699,3.39912 c 2.82693,-0.19593 6.51029,1.04276 10.11442,3.64785 6.40761,4.63128 10.19326,11.8576496 8.45646,16.1666096 -1.73683,4.30895004 -8.34968,4.05094004 -14.75729,-0.58034 -6.40761,-4.63129 -10.19317,-11.8852996 -8.45634,-16.1942496 0.75984,-1.88516 2.44397,-2.88748 4.64275,-3.03987 z"
       id="path3783"
       inkscape:connector-curvature="0"
       inkscape:export-filename="C:\Users\Julian Ceipek\Development\Piano-Prototype\PianoGame\PianoGame\PianoGameContent\whole_note.png"
       inkscape:export-xdpi="90"
       inkscape:export-ydpi="90" />
    <path
       inkscape:connector-curvature="0"
       style="font-size:medium;font-style:normal;font-variant:normal;font-weight:normal;font-stretch:normal;text-indent:0;text-align:start;text-decoration:none;line-height:normal;letter-spacing:normal;word-spacing:normal;text-transform:none;direction:ltr;block-progression:tb;writing-mode:lr-tb;text-anchor:start;baseline-shift:baseline;color:#000000;fill:#000000;fill-opacity:1;stroke:none;stroke-width:6;marker:none;visibility:visible;display:inline;overflow:visible;enable-background:accumulate;font-family:Sans;-inkscape-font-specification:Sans"
       d="m 809.29605,-26.967188 c -2.40031,0.0592 -4.92178,0.50723 -7.42465,1.35982 -8.19479,2.79139 -13.7276,9.18135 -14.08773,15.47478 l -0.0546,0 1.16946,115.068128 4.86808,-0.0536 -1.06057,-105.22301836 c 4.49629,3.12961996 11.42972,3.91874996 18.30325,1.57739996 10.01173,-3.41037 16.09739,-12.1918796 13.57096,-19.6086496 -1.89483,-5.56257 -8.08355,-8.7717 -15.28435,-8.59408 z m 3.80738,3.50833 c 3.15755,-0.0828 5.85054,0.67494 7.45182,2.3389 3.6603,3.80332 0.30979,10.89891 -7.47897,15.8283296 -7.78877,4.92946004 -17.06335,5.84307004 -20.72365,2.03974 -3.66031,-3.80333 -0.33695,-10.8988996 7.45181,-15.8283296 4.3812,-2.77282 9.23936,-4.27207 13.29899,-4.37864 z"
       id="path3812-2"
       inkscape:export-filename="C:\Users\Julian Ceipek\Development\Piano-Prototype\PianoGame\PianoGame\PianoGameContent\half_note.png"
       inkscape:export-xdpi="90"
       inkscape:export-ydpi="90" />
    <path
       style="fill:none;stroke:#ff0000;stroke-width:1px;stroke-linecap:butt;stroke-linejoin:miter;stroke-opacity:1"
       d="m -380,927.71953 c -2.8401,5.39844 -7.03512,10.04905 -11.98789,13.60986 -4.95278,3.56082 -10.65087,6.04285 -16.58354,7.46156 -7.39997,1.76959 -15.21525,1.88792 -22.61761,0.12831 -7.40235,-1.75961 -14.37391,-5.41543 -19.88239,-10.66402 -6.21794,-5.92458 -10.52587,-13.95901 -11.42857,-22.5 -0.76418,-7.23033 0.98403,-14.78892 5.27248,-20.6601 4.28846,-5.87117 11.17262,-9.89926 18.43403,-10.26463 7.12943,-0.35873 14.34953,2.90207 18.78995,8.49135 4.44041,5.58929 5.98383,13.36262 4.01037,20.22286 -2.04616,7.11298 -7.63876,12.91613 -14.32134,16.09802 -2.99445,1.4258 -6.21554,2.37433 -9.50481,2.79893 1.43749,2.86013 3.68829,5.30586 6.41947,6.9754 3.65785,2.23601 8.03689,3.03554 12.3235,3.10331 7.38108,0.1167 14.80609,-1.86433 21.06256,-5.78231 6.25647,-3.91798 11.30656,-9.77711 14.10901,-16.60648 1.22343,-2.98142 2.02302,-6.12994 2.46368,-9.32234 1.39051,-10.07357 -0.78405,-20.26007 -2.94306,-30.19732 -10.85719,-49.97221 -21.6182,-99.9656 -32.12002,-150.0137 -2.84582,-13.56223 -5.67264,-27.12857 -8.59922,-40.6736 -5.59478,-25.89416 -11.57819,-51.88976 -12.5633,-78.36312 -0.98511,-26.47335 3.35834,-53.81181 17.11242,-76.45324 1.71815,-2.82834 3.61659,-5.61784 6.19656,-7.69035 1.28998,-1.03625 2.7441,-1.88172 4.3172,-2.39481 1.57309,-0.5131 3.26789,-0.68701 4.89839,-0.40528 2.54486,0.43972 4.80587,1.96417 6.55286,3.8662 1.74698,1.90203 3.03464,4.17393 4.24079,6.45754 15.02925,28.45487 19.45487,62.45229 11.71631,93.68805 -5.66639,22.87169 -17.71031,44.11228 -34.34452,60.80136 -9.26233,9.29288 -19.85859,17.15488 -29.35859,26.20465 -10.36872,9.87732 -19.47782,21.2832 -25.38995,34.32615 -5.91213,13.04295 -8.49251,27.82062 -5.8057,41.88664 2.06264,10.79838 7.20298,20.96107 14.50957,29.17528 7.30659,8.21421 16.74499,14.47838 27.07571,18.23812 14.39953,5.24053 30.83159,5.48914 44.85332,-0.69152 7.01087,-3.09034 13.35215,-7.74153 18.25787,-13.62679 4.90573,-5.88526 8.35369,-13.00691 9.73808,-20.54255 1.44106,-7.84414 0.61615,-16.10953 -2.4694,-23.46388 -3.08555,-7.35435 -8.43674,-13.76051 -15.19517,-17.99498 -6.75843,-4.23447 -14.90083,-6.25771 -22.84465,-5.54863 -7.94383,0.70908 -15.6366,4.16932 -21.34742,9.73652 -6.71083,6.54206 -10.54809,16.05941 -9.77627,25.39954 0.38591,4.67007 1.88897,9.25148 4.39903,13.20851 2.51007,3.95702 6.02764,7.27854 10.15267,9.50172 1.1941,0.64356 2.4633,1.215 3.41336,2.1832 0.47503,0.48411 0.86143,1.06665 1.0529,1.71731 0.19148,0.65065 0.17754,1.37214 -0.1051,1.98868 -0.31327,0.68334 -0.94099,1.19785 -1.64985,1.44807 -0.70885,0.25023 -1.49119,0.25022 -2.22357,0.0808 -1.46475,-0.33892 -2.68994,-1.30663 -3.88117,-2.22388 -4.68817,-3.60993 -9.68958,-6.86099 -13.88546,-11.03294 -6.95516,-6.91551 -11.41664,-16.25209 -12.59642,-25.98897 -1.17978,-9.73687 0.90008,-19.81498 5.68988,-28.37397 4.78979,-8.559 12.24532,-15.57304 21.00443,-19.98627 8.7591,-4.41323 18.78084,-6.23083 28.549,-5.34677 12.19517,1.10371 23.97571,6.45846 32.77648,14.97238 8.80076,8.51392 14.54933,20.13581 15.90449,32.3056 0.6557,5.88839 0.31125,11.86883 -0.78073,17.69211 -2.66334,14.20299 -9.87703,27.51759 -20.3246,37.5009 -10.44758,9.98331 -24.07819,16.5853 -38.38943,18.587 -16.24735,2.27251 -33.14985,-1.3996 -47.35675,-9.60354 -14.20689,-8.20395 -25.71473,-20.81088 -33.23846,-35.38943 -8.70068,-16.8591 -12.1145,-36.47613 -9.1564,-55.21594 3.34717,-21.20467 14.51021,-40.47969 28.03994,-57.14665 13.52973,-16.66697 29.49943,-31.15784 44.38206,-46.62874 9.48721,-9.86221 18.62406,-20.24746 25.23557,-32.22904 6.61151,-11.98158 10.59249,-25.76357 9.12846,-39.36971 -0.27562,-2.56146 -0.74827,-5.1267 -1.75814,-7.49677 -1.00987,-2.37007 -2.59136,-4.54772 -4.75023,-5.95354 -2.21989,-1.44555 -4.96313,-2.00244 -7.59952,-1.74367 -2.63639,0.25878 -5.16401,1.30277 -7.34366,2.80831 -4.35929,3.01108 -7.24295,7.7057 -9.58696,12.45709 -5.60212,11.3557 -8.84535,23.8581 -9.56588,36.49996 -1.06568,18.69771 3.3079,37.22279 7.37845,55.50312 3.08276,13.84427 6.00787,27.72306 8.98442,41.59056 7.09761,33.06718 14.48913,66.07703 20.78196,99.30676 3.25575,17.19225 6.22033,34.45667 10.49377,51.42461 3.79213,15.05687 8.64629,30.11639 8.55475,45.64318 -0.0457,7.75711 -1.38827,15.63485 -5,22.5"
       id="path3037"
       inkscape:path-effect="#path-effect3039"
       inkscape:original-d="m -380,927.71953 c 0,0 -27.97631,49.95636 -28.57143,21.07142 -0.73008,-35.43589 -58.12985,-1.13398 -42.5,-10.53571 18.56091,-11.16483 -23.55339,-24.93724 -11.42857,-22.5 3.7658,0.75697 13.67774,-30.69367 23.70651,-30.92473 10.02876,-0.23106 19.99578,27.36461 22.80032,28.71421 5.60908,2.69919 -16.8954,15.2159 -14.32134,16.09802 6.96134,2.38563 -10.10446,2.42755 -9.50481,2.79893 0.71706,1.19327 5.60602,5.22545 6.41947,6.9754 0.81344,1.74994 11.47994,1.03906 12.3235,3.10331 0.84356,2.06424 34.36418,-24.52495 35.17157,-22.38879 0.8074,2.13616 1.75872,-11.28804 2.46368,-9.32234 0.70495,1.96569 -1.76788,-31.34528 -2.94306,-30.19732 -2.32089,2.26714 -25.99271,-150.91132 -32.12002,-150.0137 -0.46841,0.0686 -4.59236,-20.29392 -8.59922,-40.6736 -2.00343,-10.18984 -0.7633,-115.74112 4.54912,-154.81636 2.65621,-19.53762 9.00906,-5.31338 15.41215,-10.49044 3.20155,-2.58853 14.36207,-31.27739 10.79365,10.32374 -1.63162,19.02168 17.67773,54.49293 11.71631,93.68805 -0.5575,3.66549 -33.91517,58.01018 -34.34452,60.80136 -2.5102,16.3186 -14.99817,10.26574 -29.35859,26.20465 -3.59011,3.98473 -27.65438,70.41538 -31.19565,76.21279 -3.54126,5.79741 44.51191,41.67588 41.58528,47.4134 -2.92664,5.73752 74.59549,-38.66591 72.84927,-34.86086 -0.8731,1.90252 -52.1883,-24.76784 -61.85664,-37.27097 -2.41709,-3.12578 3.77322,44.52228 4.77543,48.10977 1.00222,3.58749 1.81634,-0.45702 4.36116,5.88919 2.54483,6.3462 -9.96535,-5.84543 -7.75459,-0.69505 1.10538,2.57519 -6.43044,-2.65698 -13.88546,-11.03294 -3.72751,-4.18798 39.52947,-63.17976 42.64689,-79.69598 1.55872,-8.25811 36.74325,30.08481 48.68097,47.27798 2.98443,4.29829 2.14986,10.62293 -0.78073,17.69211 -2.93059,7.06918 -53.31436,48.81147 -58.71403,56.0879 -5.39967,7.27642 -76.1724,-49.91301 -80.59521,-44.99297 -2.2114,2.46002 -12.92461,-28.9276 -9.1564,-55.21594 1.8841,-13.14416 47.38857,-70.63851 72.422,-103.77539 12.51672,-16.56844 31.07639,-54.72608 34.36403,-71.59875 1.64382,-8.43634 4.55892,-24.85501 -6.50837,-13.45031 -5.53364,5.70235 -17.15217,2.46769 -24.53014,13.52173 -1.84449,2.7635 -11.43734,15.50488 -9.56588,36.49996 0.93573,10.49755 4.02326,36.89781 7.37845,55.50312 3.35519,18.60531 6.97804,29.41567 8.98442,41.59056 4.01277,24.34979 17.72039,85.40772 20.78196,99.30676 1.53078,6.94952 6.3822,32.02004 10.49377,51.42461 4.11158,19.40456 7.94464,33.02733 8.55475,45.64318 0.56709,11.72623 -5,22.5 -5,22.5 z"
       inkscape:connector-curvature="0"
       sodipodi:nodetypes="cssssssccssssssssssssssssssssssssssssssssssssc" />
    <path
       sodipodi:nodetypes="cssssssccssssssssssssssssssssssssssssssssssssc"
       inkscape:connector-curvature="0"
       inkscape:original-d="m 207.35454,896.18044 c 0,0 -23.50857,41.97856 -24.00869,17.70636 -0.61346,-29.7769 -48.84674,-0.95289 -35.71289,-8.85314 15.59682,-9.38188 -19.79205,-20.95489 -9.60349,-18.90687 3.16438,0.63608 11.49343,-25.79203 19.9207,-25.98619 8.42718,-0.19416 16.80251,22.9946 19.1592,24.12867 4.71331,2.26815 -14.19734,12.78599 -12.03434,13.52724 5.84972,2.0047 -8.4908,2.03992 -7.98688,2.35192 0.60249,1.00279 4.71074,4.39104 5.39429,5.86148 0.68354,1.47052 9.64667,0.87317 10.35552,2.60773 0.70885,1.73465 28.87631,-20.60842 29.55481,-18.81338 0.67841,1.79502 1.47787,-9.4854 2.07019,-7.83361 0.5924,1.65178 -1.48548,-26.33958 -2.47306,-25.37495 -1.9502,1.90509 -21.84179,-126.81145 -26.99053,-126.05717 -0.39367,0.0577 -3.85899,-17.05306 -7.226,-34.1782 -1.68351,-8.56257 -0.64143,-97.25778 3.82262,-130.09287 2.23202,-16.41756 7.57038,-4.46486 12.95095,-8.81517 2.69029,-2.17515 12.0685,-26.28254 9.06993,8.67509 -1.37106,15.984 14.8547,45.79064 9.84524,78.72648 -0.46844,3.08013 -28.49902,48.74621 -28.85986,51.09165 -2.10929,13.71259 -12.60303,8.62635 -24.67011,22.01988 -3.01679,3.34838 -23.23808,59.17036 -26.21381,64.04195 -2.97574,4.87158 37.40348,35.02042 34.94423,39.84169 -2.45925,4.82126 62.6829,-32.49114 61.21556,-29.29374 -0.73363,1.5987 -43.85401,-20.81253 -51.97839,-31.31896 -2.03108,-2.62661 3.17066,37.41227 4.01286,40.42685 0.84211,3.01459 1.52627,-0.38403 3.66467,4.94872 2.13841,5.33273 -8.37391,-4.91195 -6.51626,-0.58406 0.92891,2.16394 -5.40349,-2.23267 -11.66802,-9.27102 -3.13217,-3.51919 33.21684,-53.09024 35.83642,-66.9689 1.30975,-6.93932 30.87553,25.28041 40.90685,39.7279 2.50783,3.61188 1.8065,8.9265 -0.65611,14.86676 -2.46253,5.94027 -44.80026,41.0165 -49.33766,47.13091 -4.53731,6.11441 -64.00795,-41.94212 -67.72448,-37.80779 -1.85827,2.06717 -10.86059,-24.30799 -7.69418,-46.3982 1.58326,-11.04509 39.82088,-59.35784 60.85658,-87.20291 10.51781,-13.92253 26.11356,-45.98657 28.87623,-60.16475 1.38133,-7.08909 3.83085,-20.88577 -5.46906,-11.30236 -4.64995,4.79172 -14.41298,2.07361 -20.61274,11.36238 -1.54998,2.32217 -9.61084,13.02881 -8.03829,30.67108 0.78636,8.82113 3.38082,31.00539 6.2002,46.63951 2.81939,15.63412 5.86361,24.71812 7.54959,34.94874 3.37197,20.46122 14.89054,71.76847 17.46322,83.4479 1.2863,5.83971 5.36296,26.90657 8.81793,43.21232 3.45497,16.30574 6.6759,27.75302 7.18858,38.35417 0.47657,9.8536 -4.20152,18.90686 -4.20152,18.90686 z"
       inkscape:path-effect="#path-effect3043"
       id="path3041"
       d="m 207.35454,896.18044 c -2.38655,4.53633 -5.91165,8.44424 -10.07348,11.4364 -4.16184,2.99216 -8.94996,5.07781 -13.93521,6.26996 -6.21822,1.48699 -12.78542,1.58643 -19.00564,0.10784 -6.22022,-1.47859 -12.07845,-4.55058 -16.70725,-8.96098 -5.22498,-4.97845 -8.84495,-11.72983 -9.60349,-18.90687 -0.64214,-6.07568 0.82689,-12.4272 4.4305,-17.36077 3.60361,-4.93358 9.3884,-8.3184 15.4902,-8.62542 5.99089,-0.30144 12.05797,2.43862 15.78927,7.13532 3.7313,4.6967 5.02824,11.22866 3.36993,16.99335 -1.7194,5.97708 -6.41892,10.8535 -12.03434,13.52724 -2.51623,1.19809 -5.22291,1.99513 -7.98688,2.35192 1.20791,2.40339 3.09927,4.45855 5.39429,5.86148 3.07372,1.87894 6.75345,2.55078 10.35552,2.60773 6.20236,0.0981 12.44162,-1.56659 17.69897,-4.85888 5.25734,-3.29228 9.50096,-8.21574 11.85584,-13.9545 1.02804,-2.5053 1.69991,-5.15102 2.07019,-7.83361 1.1684,-8.46487 -0.65885,-17.02463 -2.47306,-25.37495 -9.12323,-41.99189 -18.16576,-84.00154 -26.99053,-126.05717 -2.39137,-11.3964 -4.76677,-22.79625 -7.226,-34.1782 -4.70134,-21.75897 -9.72924,-43.6032 -10.55704,-65.84887 -0.82779,-22.24568 2.82204,-45.21831 14.37966,-64.244 1.44377,-2.37668 3.03905,-4.72071 5.20702,-6.46225 1.08398,-0.87077 2.30589,-1.58122 3.62777,-2.01237 1.32189,-0.43116 2.74604,-0.57729 4.11616,-0.34055 2.13845,0.36951 4.03839,1.65051 5.50638,3.24879 1.468,1.59829 2.55002,3.50738 3.56355,5.4263 12.62913,23.91076 16.348,52.47894 9.84524,78.72648 -4.7615,19.21918 -14.88207,37.06774 -28.85986,51.09165 -7.78316,7.80885 -16.68723,14.41532 -24.67011,22.01988 -8.71287,8.29996 -16.36728,17.88438 -21.33526,28.84443 -4.96798,10.96004 -7.13628,23.37779 -4.87855,35.19752 1.73324,9.07392 6.05267,17.61367 12.19242,24.51611 6.13975,6.90243 14.07087,12.16625 22.75181,15.32558 12.09999,4.40365 25.90792,4.61255 37.69044,-0.5811 5.89126,-2.59682 11.21986,-6.50524 15.34216,-11.45065 4.12231,-4.94541 7.01964,-10.92976 8.18296,-17.26199 1.21094,-6.59147 0.51777,-13.53692 -2.07502,-19.71683 -2.5928,-6.1799 -7.08942,-11.56303 -12.76856,-15.12129 -5.67915,-3.55825 -12.52125,-5.25839 -19.19649,-4.66254 -6.67523,0.59586 -13.13951,3.50354 -17.93832,8.1817 -5.63911,5.49733 -8.86352,13.4948 -8.21495,21.34334 0.32429,3.92427 1.58732,7.77404 3.69653,11.09914 2.10921,3.32511 5.06502,6.1162 8.53128,7.98437 1.0034,0.54079 2.06991,1.02098 2.86824,1.83457 0.39917,0.4068 0.72385,0.89631 0.88475,1.44305 0.16089,0.54675 0.14918,1.15302 -0.0883,1.6711 -0.26324,0.57422 -0.79072,1.00657 -1.38638,1.21684 -0.59566,0.21026 -1.25307,0.21025 -1.86849,0.0678 -1.23085,-0.2848 -2.26039,-1.09797 -3.26139,-1.86875 -3.93949,-3.03345 -8.1422,-5.76531 -11.66802,-9.27102 -5.84447,-5.81113 -9.59347,-13.65671 -10.58484,-21.83865 -0.99137,-8.18195 0.75635,-16.65063 4.78125,-23.84279 4.02489,-7.19216 10.28981,-13.08609 17.65014,-16.79454 7.36032,-3.70846 15.78163,-5.23579 23.98987,-4.49292 10.24766,0.92745 20.14692,5.42705 27.54225,12.58133 7.39534,7.15429 12.22589,16.92023 13.3646,27.14657 0.55097,4.94804 0.26151,9.97343 -0.65611,14.86676 -2.23806,11.93482 -8.29975,23.12312 -17.07889,31.51214 -8.77913,8.38902 -20.23298,13.93672 -32.25877,15.61877 -13.65271,1.90961 -27.85596,-1.17608 -39.79407,-8.06989 -11.93811,-6.89382 -21.60819,-17.48748 -27.93041,-29.7379 -7.31122,-14.16678 -10.17988,-30.65105 -7.69418,-46.3982 2.81264,-17.81838 12.193,-34.01527 23.5621,-48.02059 11.36911,-14.00532 24.78853,-26.18206 37.29448,-39.18232 7.97215,-8.28726 15.6499,-17.01402 21.20558,-27.0822 5.55568,-10.06818 8.9009,-21.64925 7.67065,-33.08255 -0.23161,-2.15241 -0.62879,-4.308 -1.47739,-6.29958 -0.84861,-1.99158 -2.17755,-3.82147 -3.99167,-5.00278 -1.86538,-1.21469 -4.17054,-1.68264 -6.3859,-1.46518 -2.21537,0.21745 -4.33933,1.09472 -6.17089,2.35983 -3.66313,2.53023 -6.08627,6.47513 -8.05595,10.46773 -4.70749,9.54225 -7.43283,20.04807 -8.03829,30.67108 -0.8955,15.71177 2.7797,31.27847 6.2002,46.63951 2.59045,11.6334 5.0484,23.29582 7.54959,34.94874 5.96412,27.7865 12.17532,55.52482 17.46322,83.4479 2.73583,14.44671 5.22696,28.95409 8.81793,43.21232 3.18653,12.65236 7.2655,25.30694 7.18858,38.35417 -0.0384,6.51834 -1.16656,13.13804 -4.20152,18.90686"
       style="fill:#000000;stroke:none" />
    <g
       id="g3032"
       transform="matrix(0.88484549,0,0,0.88484549,190.52653,78.042808)">
      <path
         sodipodi:nodetypes="ccccc"
         inkscape:connector-curvature="0"
         id="path3004"
         d="m 149.50258,937.205 186.87822,-186.87822 65.65991,0 -191.4239,191.42391 z"
         style="fill:#f9f9f9;stroke:#000000;stroke-width:1px;stroke-linecap:butt;stroke-linejoin:miter;stroke-opacity:1" />
      <path
         style="fill:#e6e6e6;stroke:#000000;stroke-width:1px;stroke-linecap:butt;stroke-linejoin:miter;stroke-opacity:1"
         d="m 161.62441,995.79385 -12.12183,-58.58885 61.11423,4.54569 11.76358,54.00382 z"
         id="path3006"
         inkscape:connector-curvature="0"
         sodipodi:nodetypes="ccccc" />
      <path
         style="fill:#cccccc;stroke:#000000;stroke-width:1px;stroke-linecap:butt;stroke-linejoin:miter;stroke-opacity:1"
         d="M 222.23356,995.79384 406.08133,801.84456 402.04071,750.32678 210.61681,941.75069 z"
         id="path3008"
         inkscape:connector-curvature="0"
         sodipodi:nodetypes="ccccc" />
    </g>
    <g
       id="g3037"
       transform="matrix(0.88484549,0,0,0.88484549,251.30691,83.405781)">
      <path
         style="fill:#f9f9f9;stroke:#000000;stroke-width:1px;stroke-linecap:butt;stroke-linejoin:miter;stroke-opacity:1"
         d="m 149.50258,937.205 186.87822,-186.87822 65.65991,0 -191.4239,191.42391 z"
         id="path3039"
         inkscape:connector-curvature="0"
         sodipodi:nodetypes="ccccc" />
      <path
         sodipodi:nodetypes="ccccc"
         inkscape:connector-curvature="0"
         id="path3042"
         d="m 161.62441,995.79385 -12.12183,-58.58885 61.11423,4.54569 11.76358,54.00382 z"
         style="fill:#e6e6e6;stroke:#000000;stroke-width:1px;stroke-linecap:butt;stroke-linejoin:miter;stroke-opacity:1" />
      <path
         sodipodi:nodetypes="ccccc"
         inkscape:connector-curvature="0"
         id="path3044"
         d="M 222.23356,995.79384 406.08133,801.84456 402.04071,750.32678 210.61681,941.75069 z"
         style="fill:#cccccc;stroke:#000000;stroke-width:1px;stroke-linecap:butt;stroke-linejoin:miter;stroke-opacity:1" />
    </g>
    <g
       transform="matrix(0.88484549,0,0,0.88484549,312.08726,88.768755)"
       id="g3046">
      <path
         sodipodi:nodetypes="ccccc"
         inkscape:connector-curvature="0"
         id="path3048"
         d="m 149.50258,937.205 186.87822,-186.87822 65.65991,0 -191.4239,191.42391 z"
         style="fill:#f9f9f9;stroke:#000000;stroke-width:1px;stroke-linecap:butt;stroke-linejoin:miter;stroke-opacity:1" />
      <path
         style="fill:#e6e6e6;stroke:#000000;stroke-width:1px;stroke-linecap:butt;stroke-linejoin:miter;stroke-opacity:1"
         d="m 161.62441,995.79385 -12.12183,-58.58885 61.11423,4.54569 11.76358,54.00382 z"
         id="path3050"
         inkscape:connector-curvature="0"
         sodipodi:nodetypes="ccccc" />
      <path
         style="fill:#cccccc;stroke:#000000;stroke-width:1px;stroke-linecap:butt;stroke-linejoin:miter;stroke-opacity:1"
         d="M 222.23356,995.79384 406.08133,801.84456 402.04071,750.32678 210.61681,941.75069 z"
         id="path3052"
         inkscape:connector-curvature="0"
         sodipodi:nodetypes="ccccc" />
    </g>
    <g
       id="g3054"
       transform="matrix(0.88484549,0,0,0.88484549,373.76146,95.025557)">
      <path
         style="fill:#f9f9f9;stroke:#000000;stroke-width:1px;stroke-linecap:butt;stroke-linejoin:miter;stroke-opacity:1"
         d="m 149.50258,937.205 186.87822,-186.87822 65.65991,0 -191.4239,191.42391 z"
         id="path3056"
         inkscape:connector-curvature="0"
         sodipodi:nodetypes="ccccc" />
      <path
         sodipodi:nodetypes="ccccc"
         inkscape:connector-curvature="0"
         id="path3058"
         d="m 161.62441,995.79385 -12.12183,-58.58885 61.11423,4.54569 11.76358,54.00382 z"
         style="fill:#e6e6e6;stroke:#000000;stroke-width:1px;stroke-linecap:butt;stroke-linejoin:miter;stroke-opacity:1" />
      <path
         sodipodi:nodetypes="ccccc"
         inkscape:connector-curvature="0"
         id="path3060"
         d="M 222.23356,995.79384 406.08133,801.84456 402.04071,750.32678 210.61681,941.75069 z"
         style="fill:#cccccc;stroke:#000000;stroke-width:1px;stroke-linecap:butt;stroke-linejoin:miter;stroke-opacity:1" />
    </g>
    <g
       transform="matrix(0.88484549,0,0,0.88484549,253.09456,18.156267)"
       id="g3062">
      <path
         sodipodi:nodetypes="ccccc"
         inkscape:connector-curvature="0"
         id="path3064"
         d="M 164.65487,953.36744 300.01531,809.92578 357.594,808.91562 210.48297,953.72417 z"
         style="fill:#1a1a1a;stroke:#000000;stroke-width:1px;stroke-linecap:butt;stroke-linejoin:miter;stroke-opacity:1" />
      <path
         style="fill:#4d4d4d;stroke:#000000;stroke-width:1px;stroke-linecap:butt;stroke-linejoin:miter;stroke-opacity:1"
         d="m 161.62441,977.6111 2.02031,-24.24366 46.97209,-0.50507 11.76358,24.70939 z"
         id="path3066"
         inkscape:connector-curvature="0"
         sodipodi:nodetypes="ccccc" />
      <path
         style="fill:#666666;stroke:#000000;stroke-width:1px;stroke-linecap:butt;stroke-linejoin:miter;stroke-opacity:1"
         d="M 222.23356,977.61109 361.63462,829.11867 358.60415,807.90547 210.61681,951.85222 z"
         id="path3068"
         inkscape:connector-curvature="0"
         sodipodi:nodetypes="ccccc" />
    </g>
    <g
       id="g3070"
       transform="matrix(0.88484549,0,0,0.88484549,321.91938,18.156267)">
      <path
         style="fill:#1a1a1a;stroke:#000000;stroke-width:1px;stroke-linecap:butt;stroke-linejoin:miter;stroke-opacity:1"
         d="M 164.65487,953.36744 300.01531,809.92578 357.594,808.91562 210.48297,953.72417 z"
         id="path3072"
         inkscape:connector-curvature="0"
         sodipodi:nodetypes="ccccc" />
      <path
         sodipodi:nodetypes="ccccc"
         inkscape:connector-curvature="0"
         id="path3074"
         d="m 161.62441,977.6111 2.02031,-24.24366 46.97209,-0.50507 11.76358,24.70939 z"
         style="fill:#4d4d4d;stroke:#000000;stroke-width:1px;stroke-linecap:butt;stroke-linejoin:miter;stroke-opacity:1" />
      <path
         sodipodi:nodetypes="ccccc"
         inkscape:connector-curvature="0"
         id="path3076"
         d="M 222.23356,977.61109 361.63462,829.11867 358.60415,807.90547 210.61681,951.85222 z"
         style="fill:#666666;stroke:#000000;stroke-width:1px;stroke-linecap:butt;stroke-linejoin:miter;stroke-opacity:1" />
    </g>
    <g
       transform="matrix(0.88484549,0,0,0.88484549,392.53187,18.156267)"
       id="g3078">
      <path
         sodipodi:nodetypes="ccccc"
         inkscape:connector-curvature="0"
         id="path3080"
         d="M 164.65487,953.36744 300.01531,809.92578 357.594,808.91562 210.48297,953.72417 z"
         style="fill:#1a1a1a;stroke:#000000;stroke-width:1px;stroke-linecap:butt;stroke-linejoin:miter;stroke-opacity:1" />
      <path
         style="fill:#4d4d4d;stroke:#000000;stroke-width:1px;stroke-linecap:butt;stroke-linejoin:miter;stroke-opacity:1"
         d="m 161.62441,977.6111 2.02031,-24.24366 46.97209,-0.50507 11.76358,24.70939 z"
         id="path3082"
         inkscape:connector-curvature="0"
         sodipodi:nodetypes="ccccc" />
      <path
         style="fill:#666666;stroke:#000000;stroke-width:1px;stroke-linecap:butt;stroke-linejoin:miter;stroke-opacity:1"
         d="M 222.23356,977.61109 361.63462,829.11867 358.60415,807.90547 210.61681,951.85222 z"
         id="path3084"
         inkscape:connector-curvature="0"
         sodipodi:nodetypes="ccccc" />
    </g>
    <text
       xml:space="preserve"
       style="font-size:83.27285004px;font-style:normal;font-variant:normal;font-weight:normal;font-stretch:normal;line-height:125%;letter-spacing:0px;word-spacing:0px;fill:#000000;fill-opacity:1;stroke:none;font-family:Classica;-inkscape-font-specification:Classica"
       x="82.592155"
       y="472.98193"
       id="text3142"
       sodipodi:linespacing="125%"><tspan
         sodipodi:role="line"
         id="tspan3144"
         x="82.592155"
         y="472.98193"
         style="font-weight:bold;-inkscape-font-specification:Classica Bold">Keyboard Master</tspan></text>
    <text
       sodipodi:linespacing="125%"
       id="text3154"
       y="620.19373"
       x="660.72125"
       style="font-size:56.4051857px;font-style:normal;font-variant:normal;font-weight:normal;font-stretch:normal;line-height:125%;letter-spacing:0px;word-spacing:0px;fill:#000000;fill-opacity:1;stroke:none;font-family:Classica;-inkscape-font-specification:Classica"
       xml:space="preserve"><tspan
         style="font-weight:bold;text-align:center;text-anchor:middle;-inkscape-font-specification:Classica Bold"
         y="620.19373"
         x="660.72125"
         id="tspan3156"
         sodipodi:role="line">PRESS ANY KEY</tspan><tspan
         style="font-weight:bold;text-align:center;text-anchor:middle;-inkscape-font-specification:Classica Bold"
         y="690.7002"
         x="660.72125"
         sodipodi:role="line"
         id="tspan3158">TO BEGIN</tspan></text>
    <g
       transform="matrix(0.88484549,0,0,0.88484549,442.58629,88.768755)"
       id="g3160">
      <path
         style="fill:#f9f9f9;stroke:#000000;stroke-width:1px;stroke-linecap:butt;stroke-linejoin:miter;stroke-opacity:1"
         d="m 149.50258,937.205 186.87822,-186.87822 65.65991,0 -191.4239,191.42391 z"
         id="path3162"
         inkscape:connector-curvature="0"
         sodipodi:nodetypes="ccccc" />
      <path
         sodipodi:nodetypes="ccccc"
         inkscape:connector-curvature="0"
         id="path3164"
         d="m 161.62441,995.79385 -12.12183,-58.58885 61.11423,4.54569 11.76358,54.00382 z"
         style="fill:#e6e6e6;stroke:#000000;stroke-width:1px;stroke-linecap:butt;stroke-linejoin:miter;stroke-opacity:1" />
      <path
         sodipodi:nodetypes="ccccc"
         inkscape:connector-curvature="0"
         id="path3166"
         d="M 222.23356,995.79384 406.08133,801.84456 402.04071,750.32678 210.61681,941.75069 z"
         style="fill:#cccccc;stroke:#000000;stroke-width:1px;stroke-linecap:butt;stroke-linejoin:miter;stroke-opacity:1" />
    </g>
    <g
       transform="matrix(0.88484549,0,0,0.88484549,503.36667,94.131728)"
       id="g3168">
      <path
         sodipodi:nodetypes="ccccc"
         inkscape:connector-curvature="0"
         id="path3170"
         d="m 149.50258,937.205 186.87822,-186.87822 65.65991,0 -191.4239,191.42391 z"
         style="fill:#f9f9f9;stroke:#000000;stroke-width:1px;stroke-linecap:butt;stroke-linejoin:miter;stroke-opacity:1" />
      <path
         style="fill:#e6e6e6;stroke:#000000;stroke-width:1px;stroke-linecap:butt;stroke-linejoin:miter;stroke-opacity:1"
         d="m 161.62441,995.79385 -12.12183,-58.58885 61.11423,4.54569 11.76358,54.00382 z"
         id="path3172"
         inkscape:connector-curvature="0"
         sodipodi:nodetypes="ccccc" />
      <path
         style="fill:#cccccc;stroke:#000000;stroke-width:1px;stroke-linecap:butt;stroke-linejoin:miter;stroke-opacity:1"
         d="M 222.23356,995.79384 406.08133,801.84456 402.04071,750.32678 210.61681,941.75069 z"
         id="path3174"
         inkscape:connector-curvature="0"
         sodipodi:nodetypes="ccccc" />
    </g>
    <g
       id="g3176"
       transform="matrix(0.88484549,0,0,0.88484549,564.14702,99.494702)">
      <path
         style="fill:#f9f9f9;stroke:#000000;stroke-width:1px;stroke-linecap:butt;stroke-linejoin:miter;stroke-opacity:1"
         d="m 149.50258,937.205 186.87822,-186.87822 65.65991,0 -191.4239,191.42391 z"
         id="path3178"
         inkscape:connector-curvature="0"
         sodipodi:nodetypes="ccccc" />
      <path
         sodipodi:nodetypes="ccccc"
         inkscape:connector-curvature="0"
         id="path3180"
         d="m 161.62441,995.79385 -12.12183,-58.58885 61.11423,4.54569 11.76358,54.00382 z"
         style="fill:#e6e6e6;stroke:#000000;stroke-width:1px;stroke-linecap:butt;stroke-linejoin:miter;stroke-opacity:1" />
      <path
         sodipodi:nodetypes="ccccc"
         inkscape:connector-curvature="0"
         id="path3182"
         d="M 222.23356,995.79384 406.08133,801.84456 402.04071,750.32678 210.61681,941.75069 z"
         style="fill:#cccccc;stroke:#000000;stroke-width:1px;stroke-linecap:butt;stroke-linejoin:miter;stroke-opacity:1" />
    </g>
    <g
       transform="matrix(0.88484549,0,0,0.88484549,625.82122,105.7515)"
       id="g3184">
      <path
         sodipodi:nodetypes="ccccc"
         inkscape:connector-curvature="0"
         id="path3186"
         d="m 149.50258,937.205 186.87822,-186.87822 65.65991,0 -191.4239,191.42391 z"
         style="fill:#f9f9f9;stroke:#000000;stroke-width:1px;stroke-linecap:butt;stroke-linejoin:miter;stroke-opacity:1" />
      <path
         style="fill:#e6e6e6;stroke:#000000;stroke-width:1px;stroke-linecap:butt;stroke-linejoin:miter;stroke-opacity:1"
         d="m 161.62441,995.79385 -12.12183,-58.58885 61.11423,4.54569 11.76358,54.00382 z"
         id="path3188"
         inkscape:connector-curvature="0"
         sodipodi:nodetypes="ccccc" />
      <path
         style="fill:#cccccc;stroke:#000000;stroke-width:1px;stroke-linecap:butt;stroke-linejoin:miter;stroke-opacity:1"
         d="M 222.23356,995.79384 406.08133,801.84456 402.04071,750.32678 210.61681,941.75069 z"
         id="path3190"
         inkscape:connector-curvature="0"
         sodipodi:nodetypes="ccccc" />
    </g>
    <g
       id="g3192"
       transform="matrix(0.88484549,0,0,0.88484549,505.15432,28.882214)">
      <path
         style="fill:#1a1a1a;stroke:#000000;stroke-width:1px;stroke-linecap:butt;stroke-linejoin:miter;stroke-opacity:1"
         d="M 164.65487,953.36744 300.01531,809.92578 357.594,808.91562 210.48297,953.72417 z"
         id="path3194"
         inkscape:connector-curvature="0"
         sodipodi:nodetypes="ccccc" />
      <path
         sodipodi:nodetypes="ccccc"
         inkscape:connector-curvature="0"
         id="path3196"
         d="m 161.62441,977.6111 2.02031,-24.24366 46.97209,-0.50507 11.76358,24.70939 z"
         style="fill:#4d4d4d;stroke:#000000;stroke-width:1px;stroke-linecap:butt;stroke-linejoin:miter;stroke-opacity:1" />
      <path
         sodipodi:nodetypes="ccccc"
         inkscape:connector-curvature="0"
         id="path3198"
         d="M 222.23356,977.61109 361.63462,829.11867 358.60415,807.90547 210.61681,951.85222 z"
         style="fill:#666666;stroke:#000000;stroke-width:1px;stroke-linecap:butt;stroke-linejoin:miter;stroke-opacity:1" />
    </g>
    <g
       transform="matrix(0.88484549,0,0,0.88484549,573.97914,28.882214)"
       id="g3200">
      <path
         sodipodi:nodetypes="ccccc"
         inkscape:connector-curvature="0"
         id="path3202"
         d="M 164.65487,953.36744 300.01531,809.92578 357.594,808.91562 210.48297,953.72417 z"
         style="fill:#1a1a1a;stroke:#000000;stroke-width:1px;stroke-linecap:butt;stroke-linejoin:miter;stroke-opacity:1" />
      <path
         style="fill:#4d4d4d;stroke:#000000;stroke-width:1px;stroke-linecap:butt;stroke-linejoin:miter;stroke-opacity:1"
         d="m 161.62441,977.6111 2.02031,-24.24366 46.97209,-0.50507 11.76358,24.70939 z"
         id="path3204"
         inkscape:connector-curvature="0"
         sodipodi:nodetypes="ccccc" />
      <path
         style="fill:#666666;stroke:#000000;stroke-width:1px;stroke-linecap:butt;stroke-linejoin:miter;stroke-opacity:1"
         d="M 222.23356,977.61109 361.63462,829.11867 358.60415,807.90547 210.61681,951.85222 z"
         id="path3206"
         inkscape:connector-curvature="0"
         sodipodi:nodetypes="ccccc" />
    </g>
    <g
       id="g3208"
       transform="matrix(0.88484549,0,0,0.88484549,644.59163,28.882214)">
      <path
         style="fill:#1a1a1a;stroke:#000000;stroke-width:1px;stroke-linecap:butt;stroke-linejoin:miter;stroke-opacity:1"
         d="M 164.65487,953.36744 300.01531,809.92578 357.594,808.91562 210.48297,953.72417 z"
         id="path3210"
         inkscape:connector-curvature="0"
         sodipodi:nodetypes="ccccc" />
      <path
         sodipodi:nodetypes="ccccc"
         inkscape:connector-curvature="0"
         id="path3212"
         d="m 161.62441,977.6111 2.02031,-24.24366 46.97209,-0.50507 11.76358,24.70939 z"
         style="fill:#4d4d4d;stroke:#000000;stroke-width:1px;stroke-linecap:butt;stroke-linejoin:miter;stroke-opacity:1" />
      <path
         sodipodi:nodetypes="ccccc"
         inkscape:connector-curvature="0"
         id="path3214"
         d="M 222.23356,977.61109 361.63462,829.11867 358.60415,807.90547 210.61681,951.85222 z"
         style="fill:#666666;stroke:#000000;stroke-width:1px;stroke-linecap:butt;stroke-linejoin:miter;stroke-opacity:1" />
    </g>
    <text
       sodipodi:linespacing="125%"
       id="text3216"
       y="404.41635"
       x="944.73187"
       style="font-size:34.31387329px;font-style:normal;font-variant:normal;font-weight:normal;font-stretch:normal;line-height:125%;letter-spacing:0px;word-spacing:0px;fill:#000000;fill-opacity:1;stroke:none;font-family:Classica;-inkscape-font-specification:Classica"
       xml:space="preserve"><tspan
         style="font-weight:bold;-inkscape-font-specification:Classica Bold"
         y="404.41635"
         x="944.73187"
         id="tspan3218"
         sodipodi:role="line">Prototype 0.1</tspan></text>
    <text
       xml:space="preserve"
       style="font-size:24.02822113px;font-style:normal;font-variant:normal;font-weight:normal;font-stretch:normal;line-height:125%;letter-spacing:0px;word-spacing:0px;fill:#000000;fill-opacity:1;stroke:none;font-family:Classica;-inkscape-font-specification:Classica"
       x="1086.7233"
       y="435.42642"
       id="text3220"
       sodipodi:linespacing="125%"><tspan
         id="tspan3224"
         sodipodi:role="line"
         x="1086.7233"
         y="435.42642"
         style="font-weight:bold;text-align:center;text-anchor:middle;-inkscape-font-specification:Classica Bold">&quot;Mary Had</tspan><tspan
         sodipodi:role="line"
         x="1086.7233"
         y="465.46167"
         style="font-weight:bold;text-align:center;text-anchor:middle;-inkscape-font-specification:Classica Bold"
         id="tspan3228">A Little Lamb&quot;</tspan></text>
  </g>
</svg>
