<?xml version="1.0" encoding="UTF-8" standalone="no"?>
<!-- Created with Inkscape (http://www.inkscape.org/) -->

<svg
   xmlns:dc="http://purl.org/dc/elements/1.1/"
   xmlns:cc="http://creativecommons.org/ns#"
   xmlns:rdf="http://www.w3.org/1999/02/22-rdf-syntax-ns#"
   xmlns:svg="http://www.w3.org/2000/svg"
   xmlns="http://www.w3.org/2000/svg"
   xmlns:sodipodi="http://sodipodi.sourceforge.net/DTD/sodipodi-0.dtd"
   xmlns:inkscape="http://www.inkscape.org/namespaces/inkscape"
   width="1280"
   height="720"
   id="svg3892"
   version="1.1"
   inkscape:version="0.48.2 r9819"
   sodipodi:docname="startScreen.svg"
   inkscape:export-filename="C:\Users\Julian Ceipek\Development\Piano-Prototype\PianoGame\PianoGame\PianoGameContent\staff.png"
   inkscape:export-xdpi="90"
   inkscape:export-ydpi="90">
  <defs
     id="defs3894">
    <inkscape:path-effect
       effect="spiro"
       id="path-effect3152"
       is_visible="true" />
    <inkscape:path-effect
       is_visible="true"
       id="path-effect3043"
       effect="spiro" />
    <inkscape:path-effect
       effect="spiro"
       id="path-effect3039"
       is_visible="true" />
    <inkscape:path-effect
       effect="skeletal"
       id="path-effect3033"
       is_visible="true"
       pattern="M 0,0 0,10 10,5 z"
       copytype="single_stretched"
       prop_scale="1"
       scale_y_rel="false"
       spacing="0"
       normal_offset="0"
       tang_offset="0"
       prop_units="false"
       vertical_pattern="false"
       fuse_tolerance="0" />
    <inkscape:path-effect
       effect="spiro"
       id="path-effect3031"
       is_visible="true" />
    <inkscape:path-effect
       effect="spiro"
       id="path-effect3027"
       is_visible="true" />
    <inkscape:path-effect
       effect="spiro"
       id="path-effect3023"
       is_visible="true" />
    <inkscape:path-effect
       effect="spiro"
       id="path-effect3019"
       is_visible="true" />
    <inkscape:path-effect
       effect="spiro"
       id="path-effect3015"
       is_visible="true" />
    <inkscape:path-effect
       effect="spiro"
       id="path-effect3011"
       is_visible="true" />
    <inkscape:path-effect
       effect="spiro"
       id="path-effect3007"
       is_visible="true" />
  </defs>
  <sodipodi:namedview
     id="base"
     pagecolor="#ffffff"
     bordercolor="#666666"
     borderopacity="1.0"
     inkscape:pageopacity="0.0"
     inkscape:pageshadow="2"
     inkscape:zoom="0.49497475"
     inkscape:cx="574.05869"
     inkscape:cy="559.48365"
     inkscape:document-units="px"
     inkscape:current-layer="layer1"
     showgrid="false"
     inkscape:window-width="1680"
     inkscape:window-height="988"
     inkscape:window-x="-8"
     inkscape:window-y="-8"
     inkscape:window-maximized="1"
     width="1280px" />
  <metadata
     id="metadata3897">
    <rdf:RDF>
      <cc:Work
         rdf:about="">
        <dc:format>image/svg+xml</dc:format>
        <dc:type
           rdf:resource="http://purl.org/dc/dcmitype/StillImage" />
        <dc:title></dc:title>
      </cc:Work>
    </rdf:RDF>
  </metadata>
  <g
     inkscape:label="Layer 1"
     inkscape:groupmode="layer"
     id="layer1"
     transform="translate(0,-332.36239)">
    <path
       style="fill:none;stroke:#000000;stroke-width:5.5899272;stroke-linecap:butt;stroke-linejoin:miter;stroke-miterlimit:4;stroke-opacity:1;stroke-dasharray:none"
       d="m 394.09136,-62.254918 849.91504,0"
       id="path2991"
       inkscape:connector-curvature="0" />
    <path
       style="fill:none;stroke:#000000;stroke-width:5.5899272;stroke-linecap:butt;stroke-linejoin:miter;stroke-miterlimit:4;stroke-opacity:1;stroke-dasharray:none"
       d="m 394.09136,-27.503598 849.91504,0"
       id="path2991-1"
       inkscape:connector-curvature="0" />
    <path
       style="fill:none;stroke:#000000;stroke-width:5.5899272;stroke-linecap:butt;stroke-linejoin:miter;stroke-miterlimit:4;stroke-opacity:1;stroke-dasharray:none"
       d="m 394.09136,7.2477416 849.91504,0"
       id="path2991-7"
       inkscape:connector-curvature="0" />
    <path
       style="fill:none;stroke:#000000;stroke-width:5.5899272;stroke-linecap:butt;stroke-linejoin:miter;stroke-miterlimit:4;stroke-opacity:1;stroke-dasharray:none"
       d="m 394.09136,41.999062 849.91504,0"
       id="path2991-4"
       inkscape:connector-curvature="0" />
    <path
       style="fill:none;stroke:#000000;stroke-width:5.5899272;stroke-linecap:butt;stroke-linejoin:miter;stroke-miterlimit:4;stroke-opacity:1;stroke-dasharray:none"
       d="m 394.09136,76.750402 849.91504,0"
       id="path2991-0"
       inkscape:connector-curvature="0" />
    <path
       style="fill:none;stroke:#000000;stroke-width:17.28120232;stroke-linecap:round;stroke-linejoin:round;stroke-miterlimit:4;stroke-opacity:1;stroke-dasharray:none"
       d="m -213.98516,834.96317 c -9.15044,26.53393 33.51927,57.00773 38.68419,9.10217 -129.30262,-459.66274 52.44652,-355.93366 -40.95973,-200.24763 -109.56542,77.64705 -39.66939,164.76485 22.75541,157.01233 61.63671,-7.65465 39.33703,-137.15387 -13.65324,-104.6749 -40.83864,25.03095 -24.41533,61.43962 -9.10217,77.36841"
       id="path3040"
       inkscape:connector-curvature="0"
       sodipodi:nodetypes="cccssc" />
    <rect
       style="fill:#999999;fill-opacity:1;stroke-width:9.30000019000000040;stroke-miterlimit:4;stroke-dasharray:none"
       id="rect3033"
       width="12.00251"
       height="935.68549"
       x="-461.69208"
       y="12.71645"
       transform="matrix(0,-1,1,0,0,0)" />
    <path
       inkscape:connector-curvature="0"
       style="font-size:medium;font-style:normal;font-variant:normal;font-weight:normal;font-stretch:normal;text-indent:0;text-align:start;text-decoration:none;line-height:normal;letter-spacing:normal;word-spacing:normal;text-transform:none;direction:ltr;block-progression:tb;writing-mode:lr-tb;text-anchor:start;baseline-shift:baseline;color:#000000;fill:#000000;fill-opacity:1;stroke:none;stroke-width:6;marker:none;visibility:visible;display:inline;overflow:visible;enable-background:accumulate;font-family:Sans;-inkscape-font-specification:Sans"
       d="m 850.32381,-26.967208 c -2.40031,0.0592 -4.92166,0.50724 -7.42466,1.35983 -8.19466,2.79139 -13.72746,9.18135 -14.08773,15.47478 l -0.0546,0 1.16946,115.068138 4.86821,-0.0536 -1.06083,-105.22302836 c 4.49641,3.12960996 11.42997,3.91874996 18.30337,1.57738996 10.01174,-3.41036 16.0974,-12.1918696 13.57097,-19.6086396 -1.89483,-5.56257 -8.08355,-8.7717 -15.28436,-8.59408 z"
       id="path3812-5"
       inkscape:export-filename="C:\Users\Julian Ceipek\Development\Piano-Prototype\PianoGame\PianoGame\PianoGameContent\quarter_note.png"
       inkscape:export-xdpi="90"
       inkscape:export-ydpi="90" />
    <path
       style="fill:#000000;fill-opacity:1;fill-rule:nonzero;stroke:none"
       d="m 898.21517,-26.913228 c -1.28107,-0.0208 -2.59278,0.069 -3.92408,0.24871 -10.65078,1.43805 -18.42032,8.99504 -17.35503,16.8851196 1.06541,7.89006 10.57315,13.12776 21.22393,11.68971 10.65063,-1.43806996 18.42017,-9.0227 17.35488,-16.9127596 -0.93222,-6.90382 -8.33205,-11.76517 -17.2997,-11.91078 z m -9.61699,3.39912 c 2.82693,-0.19593 6.51029,1.04276 10.11442,3.64785 6.40761,4.63128 10.19326,11.8576496 8.45646,16.1666096 -1.73683,4.30895004 -8.34968,4.05094004 -14.75729,-0.58034 -6.40761,-4.63129 -10.19317,-11.8852996 -8.45634,-16.1942496 0.75984,-1.88516 2.44397,-2.88748 4.64275,-3.03987 z"
       id="path3783"
       inkscape:connector-curvature="0"
       inkscape:export-filename="C:\Users\Julian Ceipek\Development\Piano-Prototype\PianoGame\PianoGame\PianoGameContent\whole_note.png"
       inkscape:export-xdpi="90"
       inkscape:export-ydpi="90" />
    <path
       inkscape:connector-curvature="0"
       style="font-size:medium;font-style:normal;font-variant:normal;font-weight:normal;font-stretch:normal;text-indent:0;text-align:start;text-decoration:none;line-height:normal;letter-spacing:normal;word-spacing:normal;text-transform:none;direction:ltr;block-progression:tb;writing-mode:lr-tb;text-anchor:start;baseline-shift:baseline;color:#000000;fill:#000000;fill-opacity:1;stroke:none;stroke-width:6;marker:none;visibility:visible;display:inline;overflow:visible;enable-background:accumulate;font-family:Sans;-inkscape-font-specification:Sans"
       d="m 809.29605,-26.967188 c -2.40031,0.0592 -4.92178,0.50723 -7.42465,1.35982 -8.19479,2.79139 -13.7276,9.18135 -14.08773,15.47478 l -0.0546,0 1.16946,115.068128 4.86808,-0.0536 -1.06057,-105.22301836 c 4.49629,3.12961996 11.42972,3.91874996 18.30325,1.57739996 10.01173,-3.41037 16.09739,-12.1918796 13.57096,-19.6086496 -1.89483,-5.56257 -8.08355,-8.7717 -15.28435,-8.59408 z m 3.80738,3.50833 c 3.15755,-0.0828 5.85054,0.67494 7.45182,2.3389 3.6603,3.80332 0.30979,10.89891 -7.47897,15.8283296 -7.78877,4.92946004 -17.06335,5.84307004 -20.72365,2.03974 -3.66031,-3.80333 -0.33695,-10.8988996 7.45181,-15.8283296 4.3812,-2.77282 9.23936,-4.27207 13.29899,-4.37864 z"
       id="path3812-2"
       inkscape:export-filename="C:\Users\Julian Ceipek\Development\Piano-Prototype\PianoGame\PianoGame\PianoGameContent\half_note.png"
       inkscape:export-xdpi="90"
       inkscape:export-ydpi="90" />
    <path
       style="fill:none;stroke:#ff0000;stroke-width:1px;stroke-linecap:butt;stroke-linejoin:miter;stroke-opacity:1"
       d="m -380,927.71953 c -2.8401,5.39844 -7.03512,10.04905 -11.98789,13.60986 -4.95278,3.56082 -10.65087,6.04285 -16.58354,7.46156 -7.39997,1.76959 -15.21525,1.88792 -22.61761,0.12831 -7.40235,-1.75961 -14.37391,-5.41543 -19.88239,-10.66402 -6.21794,-5.92458 -10.52587,-13.95901 -11.42857,-22.5 -0.76418,-7.23033 0.98403,-14.78892 5.27248,-20.6601 4.28846,-5.87117 11.17262,-9.89926 18.43403,-10.26463 7.12943,-0.35873 14.34953,2.90207 18.78995,8.49135 4.44041,5.58929 5.98383,13.36262 4.01037,20.22286 -2.04616,7.11298 -7.63876,12.91613 -14.32134,16.09802 -2.99445,1.4258 -6.21554,2.37433 -9.50481,2.79893 1.43749,2.86013 3.68829,5.30586 6.41947,6.9754 3.65785,2.23601 8.03689,3.03554 12.3235,3.10331 7.38108,0.1167 14.80609,-1.86433 21.06256,-5.78231 6.25647,-3.91798 11.30656,-9.77711 14.10901,-16.60648 1.22343,-2.98142 2.02302,-6.12994 2.46368,-9.32234 1.39051,-10.07357 -0.78405,-20.26007 -2.94306,-30.19732 -10.85719,-49.97221 -21.6182,-99.9656 -32.12002,-150.0137 -2.84582,-13.56223 -5.67264,-27.12857 -8.59922,-40.6736 -5.59478,-25.89416 -11.57819,-51.88976 -12.5633,-78.36312 -0.98511,-26.47335 3.35834,-53.81181 17.11242,-76.45324 1.71815,-2.82834 3.61659,-5.61784 6.19656,-7.69035 1.28998,-1.03625 2.7441,-1.88172 4.3172,-2.39481 1.57309,-0.5131 3.26789,-0.68701 4.89839,-0.40528 2.54486,0.43972 4.80587,1.96417 6.55286,3.8662 1.74698,1.90203 3.03464,4.17393 4.24079,6.45754 15.02925,28.45487 19.45487,62.45229 11.71631,93.68805 -5.66639,22.87169 -17.71031,44.11228 -34.34452,60.80136 -9.26233,9.29288 -19.85859,17.15488 -29.35859,26.20465 -10.36872,9.87732 -19.47782,21.2832 -25.38995,34.32615 -5.91213,13.04295 -8.49251,27.82062 -5.8057,41.88664 2.06264,10.79838 7.20298,20.96107 14.50957,29.17528 7.30659,8.21421 16.74499,14.47838 27.07571,18.23812 14.39953,5.24053 30.83159,5.48914 44.85332,-0.69152 7.01087,-3.09034 13.35215,-7.74153 18.25787,-13.62679 4.90573,-5.88526 8.35369,-13.00691 9.73808,-20.54255 1.44106,-7.84414 0.61615,-16.10953 -2.4694,-23.46388 -3.08555,-7.35435 -8.43674,-13.76051 -15.19517,-17.99498 -6.75843,-4.23447 -14.90083,-6.25771 -22.84465,-5.54863 -7.94383,0.70908 -15.6366,4.16932 -21.34742,9.73652 -6.71083,6.54206 -10.54809,16.05941 -9.77627,25.39954 0.38591,4.67007 1.88897,9.25148 4.39903,13.20851 2.51007,3.95702 6.02764,7.27854 10.15267,9.50172 1.1941,0.64356 2.4633,1.215 3.41336,2.1832 0.47503,0.48411 0.86143,1.06665 1.0529,1.71731 0.19148,0.65065 0.17754,1.37214 -0.1051,1.98868 -0.31327,0.68334 -0.94099,1.19785 -1.64985,1.44807 -0.70885,0.25023 -1.49119,0.25022 -2.22357,0.0808 -1.46475,-0.33892 -2.68994,-1.30663 -3.88117,-2.22388 -4.68817,-3.60993 -9.68958,-6.86099 -13.88546,-11.03294 -6.95516,-6.91551 -11.41664,-16.25209 -12.59642,-25.98897 -1.17978,-9.73687 0.90008,-19.81498 5.68988,-28.37397 4.78979,-8.559 12.24532,-15.57304 21.00443,-19.98627 8.7591,-4.41323 18.78084,-6.23083 28.549,-5.34677 12.19517,1.10371 23.97571,6.45846 32.77648,14.97238 8.80076,8.51392 14.54933,20.13581 15.90449,32.3056 0.6557,5.88839 0.31125,11.86883 -0.78073,17.69211 -2.66334,14.20299 -9.87703,27.51759 -20.3246,37.5009 -10.44758,9.98331 -24.07819,16.5853 -38.38943,18.587 -16.24735,2.27251 -33.14985,-1.3996 -47.35675,-9.60354 -14.20689,-8.20395 -25.71473,-20.81088 -33.23846,-35.38943 -8.70068,-16.8591 -12.1145,-36.47613 -9.1564,-55.21594 3.34717,-21.20467 14.51021,-40.47969 28.03994,-57.14665 13.52973,-16.66697 29.49943,-31.15784 44.38206,-46.62874 9.48721,-9.86221 18.62406,-20.24746 25.23557,-32.22904 6.61151,-11.98158 10.59249,-25.76357 9.12846,-39.36971 -0.27562,-2.56146 -0.74827,-5.1267 -1.75814,-7.49677 -1.00987,-2.37007 -2.59136,-4.54772 -4.75023,-5.95354 -2.21989,-1.44555 -4.96313,-2.00244 -7.59952,-1.74367 -2.63639,0.25878 -5.16401,1.30277 -7.34366,2.80831 -4.35929,3.01108 -7.24295,7.7057 -9.58696,12.45709 -5.60212,11.3557 -8.84535,23.8581 -9.56588,36.49996 -1.06568,18.69771 3.3079,37.22279 7.37845,55.50312 3.08276,13.84427 6.00787,27.72306 8.98442,41.59056 7.09761,33.06718 14.48913,66.07703 20.78196,99.30676 3.25575,17.19225 6.22033,34.45667 10.49377,51.42461 3.79213,15.05687 8.64629,30.11639 8.55475,45.64318 -0.0457,7.75711 -1.38827,15.63485 -5,22.5"
       id="path3037"
       inkscape:path-effect="#path-effect3039"
       inkscape:original-d="m -380,927.71953 c 0,0 -27.97631,49.95636 -28.57143,21.07142 -0.73008,-35.43589 -58.12985,-1.13398 -42.5,-10.53571 18.56091,-11.16483 -23.55339,-24.93724 -11.42857,-22.5 3.7658,0.75697 13.67774,-30.69367 23.70651,-30.92473 10.02876,-0.23106 19.99578,27.36461 22.80032,28.71421 5.60908,2.69919 -16.8954,15.2159 -14.32134,16.09802 6.96134,2.38563 -10.10446,2.42755 -9.50481,2.79893 0.71706,1.19327 5.60602,5.22545 6.41947,6.9754 0.81344,1.74994 11.47994,1.03906 12.3235,3.10331 0.84356,2.06424 34.36418,-24.52495 35.17157,-22.38879 0.8074,2.13616 1.75872,-11.28804 2.46368,-9.32234 0.70495,1.96569 -1.76788,-31.34528 -2.94306,-30.19732 -2.32089,2.26714 -25.99271,-150.91132 -32.12002,-150.0137 -0.46841,0.0686 -4.59236,-20.29392 -8.59922,-40.6736 -2.00343,-10.18984 -0.7633,-115.74112 4.54912,-154.81636 2.65621,-19.53762 9.00906,-5.31338 15.41215,-10.49044 3.20155,-2.58853 14.36207,-31.27739 10.79365,10.32374 -1.63162,19.02168 17.67773,54.49293 11.71631,93.68805 -0.5575,3.66549 -33.91517,58.01018 -34.34452,60.80136 -2.5102,16.3186 -14.99817,10.26574 -29.35859,26.20465 -3.59011,3.98473 -27.65438,70.41538 -31.19565,76.21279 -3.54126,5.79741 44.51191,41.67588 41.58528,47.4134 -2.92664,5.73752 74.59549,-38.66591 72.84927,-34.86086 -0.8731,1.90252 -52.1883,-24.76784 -61.85664,-37.27097 -2.41709,-3.12578 3.77322,44.52228 4.77543,48.10977 1.00222,3.58749 1.81634,-0.45702 4.36116,5.88919 2.54483,6.3462 -9.96535,-5.84543 -7.75459,-0.69505 1.10538,2.57519 -6.43044,-2.65698 -13.88546,-11.03294 -3.72751,-4.18798 39.52947,-63.17976 42.64689,-79.69598 1.55872,-8.25811 36.74325,30.08481 48.68097,47.27798 2.98443,4.29829 2.14986,10.62293 -0.78073,17.69211 -2.93059,7.06918 -53.31436,48.81147 -58.71403,56.0879 -5.39967,7.27642 -76.1724,-49.91301 -80.59521,-44.99297 -2.2114,2.46002 -12.92461,-28.9276 -9.1564,-55.21594 1.8841,-13.14416 47.38857,-70.63851 72.422,-103.77539 12.51672,-16.56844 31.07639,-54.72608 34.36403,-71.59875 1.64382,-8.43634 4.55892,-24.85501 -6.50837,-13.45031 -5.53364,5.70235 -17.15217,2.46769 -24.53014,13.52173 -1.84449,2.7635 -11.43734,15.50488 -9.56588,36.49996 0.93573,10.49755 4.02326,36.89781 7.37845,55.50312 3.35519,18.60531 6.97804,29.41567 8.98442,41.59056 4.01277,24.34979 17.72039,85.40772 20.78196,99.30676 1.53078,6.94952 6.3822,32.02004 10.49377,51.42461 4.11158,19.40456 7.94464,33.02733 8.55475,45.64318 0.56709,11.72623 -5,22.5 -5,22.5 z"
       inkscape:connector-curvature="0"
       sodipodi:nodetypes="cssssssccssssssssssssssssssssssssssssssssssssc" />
    <path
       sodipodi:nodetypes="cssssssccssssssssssssssssssssssssssssssssssssc"
       inkscape:connector-curvature="0"
       inkscape:original-d="m 150.48865,923.91746 c 0,0 -26.568,47.44169 -27.1332,20.01069 -0.6933,-33.65209 -55.2037,-1.0769 -40.3606,-10.0053 17.6266,-10.60285 -22.3678,-23.68198 -10.8533,-21.36743 3.5762,0.71887 12.9892,-29.14862 22.5132,-29.36805 9.5239,-0.21943 18.9892,25.98714 21.6526,27.2688 5.3267,2.56332 -16.045,14.44997 -13.6005,15.28768 6.611,2.2656 -9.5958,2.3054 -9.0263,2.658 0.6809,1.1333 5.3238,4.9625 6.0963,6.6243 0.7725,1.6619 10.9021,0.9868 11.7032,2.9471 0.8011,1.9604 32.6343,-23.29041 33.4011,-21.26177 0.7667,2.02863 1.6702,-10.71983 2.3396,-8.85308 0.6695,1.86674 -1.6788,-29.76743 -2.7949,-28.67726 -2.204,2.15302 -24.6843,-143.3148 -30.5031,-142.46236 -0.4449,0.0652 -4.3612,-19.27236 -8.1664,-38.62618 -1.9026,-9.6769 -0.7249,-109.91498 4.3201,-147.02326 2.5225,-18.55415 8.5556,-5.04592 14.6364,-9.96238 3.0404,-2.45823 13.6391,-29.70297 10.2503,9.80407 -1.5495,18.06417 16.7879,51.74988 11.1265,88.97201 -0.5294,3.48098 -32.2079,55.09008 -32.6157,57.74076 -2.3838,15.49716 -14.2432,9.74899 -27.8807,24.88556 -3.4094,3.78415 -26.2623,66.87084 -29.6253,72.37642 -3.363,5.50558 42.2712,39.57801 39.4919,45.02672 -2.7793,5.44871 70.8405,-36.71956 69.1822,-33.10605 -0.8291,1.80676 -49.5612,-23.52108 -58.7429,-35.39483 -2.2954,-2.96844 3.5833,42.28113 4.5351,45.68803 0.9517,3.40691 1.7249,-0.43401 4.1416,5.59275 2.4167,6.02674 -9.4637,-5.55119 -7.3643,-0.66007 1.0498,2.44556 -6.1067,-2.52323 -13.1865,-10.47756 -3.5398,-3.97717 37.5397,-59.99944 40.5002,-75.68428 1.4802,-7.84241 34.8937,28.57042 46.2305,44.89812 2.8342,4.08193 2.0416,10.0882 -0.7415,16.80153 -2.783,6.71334 -50.6306,46.35442 -55.7585,53.26457 -5.1278,6.91014 -72.338,-47.40051 -76.5382,-42.72813 -2.1001,2.33619 -12.274,-27.47145 -8.6955,-52.4365 1.7893,-12.48251 45.0032,-67.08272 68.7765,-98.55157 11.8866,-15.73442 29.512,-51.9713 32.6342,-67.99464 1.5611,-8.01167 4.3294,-23.60386 -6.1808,-12.77325 -5.2551,5.41531 -16.2887,2.34347 -23.2953,12.84108 -1.7517,2.62439 -10.8616,14.7244 -9.0844,34.66264 0.8887,9.96912 3.8208,35.04046 7.0071,52.70922 3.1863,17.66876 6.6267,27.93495 8.5321,39.49699 3.8108,23.12407 16.8284,81.10848 19.7359,94.30788 1.4537,6.5997 6.0609,30.40822 9.9655,48.83601 3.9046,18.42778 7.5447,31.36482 8.1241,43.34561 0.5386,11.13596 -4.7483,21.36741 -4.7483,21.36741 z"
       inkscape:path-effect="#path-effect3043"
       id="path3041"
       d="m 150.48865,923.91746 c -2.69714,5.12669 -6.68099,9.54319 -11.38445,12.92475 -4.70346,3.38156 -10.11472,5.73865 -15.74875,7.08594 -7.02747,1.68051 -14.44932,1.79289 -21.47905,0.12187 -7.029733,-1.67102 -13.650352,-5.1428 -18.88155,-10.12717 -5.904962,-5.62635 -9.996044,-13.25636 -10.8533,-21.36743 -0.725704,-6.86637 0.934505,-14.04448 5.007093,-19.62012 4.072589,-5.57563 10.610217,-9.40095 17.506107,-9.74793 6.77055,-0.34067 13.62721,2.75598 17.84411,8.06392 4.21689,5.30793 5.68261,12.68997 3.80849,19.20488 -1.94317,6.75494 -7.25429,12.26597 -13.6005,15.28768 -2.843697,1.35401 -5.902623,2.25478 -9.0263,2.658 1.365109,2.71617 3.502604,5.03879 6.0963,6.6243 3.47373,2.12347 7.63235,2.88274 11.7032,2.9471 7.00954,0.11082 14.06079,-1.77047 20.00233,-5.49122 5.94154,-3.72074 10.73743,-9.28494 13.39877,-15.77055 1.16183,-2.83134 1.92114,-5.82138 2.3396,-8.85308 1.32046,-9.5665 -0.7446,-19.24022 -2.7949,-28.67726 -10.31052,-47.45676 -20.52986,-94.93358 -30.5031,-142.46236 -2.70259,-12.87953 -5.38712,-25.76298 -8.1664,-38.62618 -5.31317,-24.5907 -10.995416,-49.27775 -11.930944,-74.4185 -0.935528,-25.14075 3.189296,-51.10306 16.251044,-72.60476 1.63167,-2.68598 3.43455,-5.33506 5.88467,-7.30325 1.22505,-0.98409 2.60598,-1.787 4.09989,-2.27427 1.49392,-0.48726 3.10342,-0.65241 4.65184,-0.38486 2.41675,0.41759 4.56394,1.86531 6.22299,3.67159 1.65904,1.80629 2.88187,3.96383 4.02731,6.13248 14.2727,27.02252 18.47553,59.30859 11.1265,88.97201 -5.38117,21.72038 -16.81883,41.89176 -32.6157,57.74076 -8.79607,8.82509 -18.858925,16.29133 -27.8807,24.88556 -9.846771,9.38013 -18.497335,20.21186 -24.111852,32.59826 -5.614518,12.3864 -8.065004,26.4202 -5.513448,39.77816 1.95881,10.25481 6.840373,19.90593 13.779155,27.70665 6.938781,7.80073 15.902056,13.74958 25.712745,17.32007 13.67469,4.97674 29.27959,5.21283 42.5955,-0.65672 6.65796,-2.93478 12.68003,-7.35184 17.33881,-12.94085 4.65878,-5.58901 7.93318,-12.35217 9.24789,-19.50848 1.36853,-7.44929 0.58515,-15.29862 -2.34507,-22.28279 -2.93023,-6.98416 -8.01204,-13.06786 -14.43027,-17.08918 -6.41823,-4.02133 -14.15077,-5.94273 -21.69473,-5.26933 -7.54396,0.6734 -14.8495,3.95949 -20.27283,9.24647 -6.372987,6.21276 -10.017033,15.25103 -9.284048,24.12098 0.366492,4.43498 1.793893,8.78576 4.177598,12.5436 2.3837,3.75783 5.72418,6.91216 9.64155,9.02345 1.13398,0.61117 2.33929,1.15385 3.24152,2.07332 0.45111,0.45974 0.81805,1.01296 0.99989,1.63086 0.18183,0.61789 0.1686,1.30307 -0.0998,1.88857 -0.2975,0.64895 -0.89362,1.13757 -1.56681,1.3752 -0.67318,0.23763 -1.41614,0.23762 -2.11166,0.0767 -1.39103,-0.32187 -2.55456,-1.24087 -3.68583,-2.11196 -4.45217,-3.42822 -9.201831,-6.51562 -13.1865,-10.47756 -6.605067,-6.5674 -10.841969,-15.434 -11.962355,-24.68075 -1.120387,-9.24675 0.854784,-18.81755 5.403485,-26.9457 4.5487,-8.12816 11.62894,-14.78912 19.94714,-18.9802 8.3182,-4.19107 17.83547,-5.91718 27.11193,-5.07763 11.5813,1.04814 22.76885,6.13333 31.12662,14.21868 8.35777,8.08534 13.81698,19.12223 15.10388,30.67944 0.62267,5.59198 0.29554,11.27138 -0.7415,16.80153 -2.52933,13.48803 -9.37989,26.13239 -19.30155,35.61316 -9.92166,9.48077 -22.86612,15.75046 -36.45695,17.65141 -15.42949,2.15813 -31.481159,-1.32913 -44.972904,-9.12012 -13.491745,-7.79098 -24.420299,-19.76331 -31.565296,-33.60801 -8.262705,-16.01045 -11.504688,-34.64 -8.6955,-52.4365 3.178682,-20.13728 13.779803,-38.44204 26.628492,-54.27003 12.848689,-15.82799 28.014525,-29.58941 42.148008,-44.28154 9.00965,-9.36577 17.68658,-19.22824 23.96528,-30.6067 6.2787,-11.37846 10.05928,-24.46671 8.66892,-37.38794 -0.26175,-2.43253 -0.71062,-4.86864 -1.66966,-7.11941 -0.95904,-2.25077 -2.46093,-4.31879 -4.51114,-5.65384 -2.10814,-1.37278 -4.71329,-1.90162 -7.21697,-1.65587 -2.50367,0.24575 -4.90405,1.23719 -6.97397,2.66695 -4.13985,2.8595 -6.87835,7.3178 -9.10436,11.83 -5.32013,10.78408 -8.40014,22.65714 -9.0844,34.66264 -1.01204,17.75651 3.14145,35.34907 7.0071,52.70922 2.92758,13.14738 5.7054,26.32755 8.5321,39.49699 6.74029,31.40266 13.75983,62.75086 19.7359,94.30788 3.09187,16.32682 5.9072,32.7222 9.9655,48.83601 3.60122,14.29895 8.21103,28.6004 8.1241,43.34561 -0.0434,7.36664 -1.31837,14.84783 -4.7483,21.36741"
       style="fill:#000000;stroke:none" />
    <g
       id="g3032"
       transform="translate(131.47063,-0.69325853)">
      <path
         sodipodi:nodetypes="ccccc"
         inkscape:connector-curvature="0"
         id="path3004"
         d="m 149.50258,937.205 186.87822,-186.87822 65.65991,0 -191.4239,191.42391 z"
         style="fill:#f9f9f9;stroke:#000000;stroke-width:1px;stroke-linecap:butt;stroke-linejoin:miter;stroke-opacity:1" />
      <path
         style="fill:#e6e6e6;stroke:#000000;stroke-width:1px;stroke-linecap:butt;stroke-linejoin:miter;stroke-opacity:1"
         d="m 161.62441,995.79385 -12.12183,-58.58885 61.11423,4.54569 11.76358,54.00382 z"
         id="path3006"
         inkscape:connector-curvature="0"
         sodipodi:nodetypes="ccccc" />
      <path
         style="fill:#cccccc;stroke:#000000;stroke-width:1px;stroke-linecap:butt;stroke-linejoin:miter;stroke-opacity:1"
         d="M 222.23356,995.79384 406.08133,801.84456 402.04071,750.32678 210.61681,941.75069 z"
         id="path3008"
         inkscape:connector-curvature="0"
         sodipodi:nodetypes="ccccc" />
    </g>
    <g
       id="g3037"
       transform="translate(200.16101,5.3676565)">
      <path
         style="fill:#f9f9f9;stroke:#000000;stroke-width:1px;stroke-linecap:butt;stroke-linejoin:miter;stroke-opacity:1"
         d="m 149.50258,937.205 186.87822,-186.87822 65.65991,0 -191.4239,191.42391 z"
         id="path3039"
         inkscape:connector-curvature="0"
         sodipodi:nodetypes="ccccc" />
      <path
         sodipodi:nodetypes="ccccc"
         inkscape:connector-curvature="0"
         id="path3042"
         d="m 161.62441,995.79385 -12.12183,-58.58885 61.11423,4.54569 11.76358,54.00382 z"
         style="fill:#e6e6e6;stroke:#000000;stroke-width:1px;stroke-linecap:butt;stroke-linejoin:miter;stroke-opacity:1" />
      <path
         sodipodi:nodetypes="ccccc"
         inkscape:connector-curvature="0"
         id="path3044"
         d="M 222.23356,995.79384 406.08133,801.84456 402.04071,750.32678 210.61681,941.75069 z"
         style="fill:#cccccc;stroke:#000000;stroke-width:1px;stroke-linecap:butt;stroke-linejoin:miter;stroke-opacity:1" />
    </g>
    <g
       transform="translate(268.85137,11.428572)"
       id="g3046">
      <path
         sodipodi:nodetypes="ccccc"
         inkscape:connector-curvature="0"
         id="path3048"
         d="m 149.50258,937.205 186.87822,-186.87822 65.65991,0 -191.4239,191.42391 z"
         style="fill:#f9f9f9;stroke:#000000;stroke-width:1px;stroke-linecap:butt;stroke-linejoin:miter;stroke-opacity:1" />
      <path
         style="fill:#e6e6e6;stroke:#000000;stroke-width:1px;stroke-linecap:butt;stroke-linejoin:miter;stroke-opacity:1"
         d="m 161.62441,995.79385 -12.12183,-58.58885 61.11423,4.54569 11.76358,54.00382 z"
         id="path3050"
         inkscape:connector-curvature="0"
         sodipodi:nodetypes="ccccc" />
      <path
         style="fill:#cccccc;stroke:#000000;stroke-width:1px;stroke-linecap:butt;stroke-linejoin:miter;stroke-opacity:1"
         d="M 222.23356,995.79384 406.08133,801.84456 402.04071,750.32678 210.61681,941.75069 z"
         id="path3052"
         inkscape:connector-curvature="0"
         sodipodi:nodetypes="ccccc" />
    </g>
    <g
       id="g3054"
       transform="translate(338.5519,18.499639)">
      <path
         style="fill:#f9f9f9;stroke:#000000;stroke-width:1px;stroke-linecap:butt;stroke-linejoin:miter;stroke-opacity:1"
         d="m 149.50258,937.205 186.87822,-186.87822 65.65991,0 -191.4239,191.42391 z"
         id="path3056"
         inkscape:connector-curvature="0"
         sodipodi:nodetypes="ccccc" />
      <path
         sodipodi:nodetypes="ccccc"
         inkscape:connector-curvature="0"
         id="path3058"
         d="m 161.62441,995.79385 -12.12183,-58.58885 61.11423,4.54569 11.76358,54.00382 z"
         style="fill:#e6e6e6;stroke:#000000;stroke-width:1px;stroke-linecap:butt;stroke-linejoin:miter;stroke-opacity:1" />
      <path
         sodipodi:nodetypes="ccccc"
         inkscape:connector-curvature="0"
         id="path3060"
         d="M 222.23356,995.79384 406.08133,801.84456 402.04071,750.32678 210.61681,941.75069 z"
         style="fill:#cccccc;stroke:#000000;stroke-width:1px;stroke-linecap:butt;stroke-linejoin:miter;stroke-opacity:1" />
    </g>
    <g
       transform="translate(202.18131,-68.373482)"
       id="g3062">
      <path
         sodipodi:nodetypes="ccccc"
         inkscape:connector-curvature="0"
         id="path3064"
         d="M 164.65487,953.36744 300.01531,809.92578 357.594,808.91562 210.48297,953.72417 z"
         style="fill:#1a1a1a;stroke:#000000;stroke-width:1px;stroke-linecap:butt;stroke-linejoin:miter;stroke-opacity:1" />
      <path
         style="fill:#4d4d4d;stroke:#000000;stroke-width:1px;stroke-linecap:butt;stroke-linejoin:miter;stroke-opacity:1"
         d="m 161.62441,977.6111 2.02031,-24.24366 46.97209,-0.50507 11.76358,24.70939 z"
         id="path3066"
         inkscape:connector-curvature="0"
         sodipodi:nodetypes="ccccc" />
      <path
         style="fill:#666666;stroke:#000000;stroke-width:1px;stroke-linecap:butt;stroke-linejoin:miter;stroke-opacity:1"
         d="M 222.23356,977.61109 361.63462,829.11867 358.60415,807.90547 210.61681,951.85222 z"
         id="path3068"
         inkscape:connector-curvature="0"
         sodipodi:nodetypes="ccccc" />
    </g>
    <g
       id="g3070"
       transform="translate(279.96305,-68.373482)">
      <path
         style="fill:#1a1a1a;stroke:#000000;stroke-width:1px;stroke-linecap:butt;stroke-linejoin:miter;stroke-opacity:1"
         d="M 164.65487,953.36744 300.01531,809.92578 357.594,808.91562 210.48297,953.72417 z"
         id="path3072"
         inkscape:connector-curvature="0"
         sodipodi:nodetypes="ccccc" />
      <path
         sodipodi:nodetypes="ccccc"
         inkscape:connector-curvature="0"
         id="path3074"
         d="m 161.62441,977.6111 2.02031,-24.24366 46.97209,-0.50507 11.76358,24.70939 z"
         style="fill:#4d4d4d;stroke:#000000;stroke-width:1px;stroke-linecap:butt;stroke-linejoin:miter;stroke-opacity:1" />
      <path
         sodipodi:nodetypes="ccccc"
         inkscape:connector-curvature="0"
         id="path3076"
         d="M 222.23356,977.61109 361.63462,829.11867 358.60415,807.90547 210.61681,951.85222 z"
         style="fill:#666666;stroke:#000000;stroke-width:1px;stroke-linecap:butt;stroke-linejoin:miter;stroke-opacity:1" />
    </g>
    <g
       transform="translate(359.7651,-68.373482)"
       id="g3078">
      <path
         sodipodi:nodetypes="ccccc"
         inkscape:connector-curvature="0"
         id="path3080"
         d="M 164.65487,953.36744 300.01531,809.92578 357.594,808.91562 210.48297,953.72417 z"
         style="fill:#1a1a1a;stroke:#000000;stroke-width:1px;stroke-linecap:butt;stroke-linejoin:miter;stroke-opacity:1" />
      <path
         style="fill:#4d4d4d;stroke:#000000;stroke-width:1px;stroke-linecap:butt;stroke-linejoin:miter;stroke-opacity:1"
         d="m 161.62441,977.6111 2.02031,-24.24366 46.97209,-0.50507 11.76358,24.70939 z"
         id="path3082"
         inkscape:connector-curvature="0"
         sodipodi:nodetypes="ccccc" />
      <path
         style="fill:#666666;stroke:#000000;stroke-width:1px;stroke-linecap:butt;stroke-linejoin:miter;stroke-opacity:1"
         d="M 222.23356,977.61109 361.63462,829.11867 358.60415,807.90547 210.61681,951.85222 z"
         id="path3084"
         inkscape:connector-curvature="0"
         sodipodi:nodetypes="ccccc" />
    </g>
    <text
       xml:space="preserve"
       style="font-size:94.11004639px;font-style:normal;font-variant:normal;font-weight:normal;font-stretch:normal;line-height:125%;letter-spacing:0px;word-spacing:0px;fill:#000000;fill-opacity:1;stroke:none;font-family:Classica;-inkscape-font-specification:Classica"
       x="9.4895868"
       y="445.64355"
       id="text3142"
       sodipodi:linespacing="125%"><tspan
         sodipodi:role="line"
         id="tspan3144"
         x="9.4895868"
         y="445.64355"
         style="font-weight:bold;-inkscape-font-specification:Classica Bold">Keyboard Master</tspan></text>
    <text
       sodipodi:linespacing="125%"
       id="text3154"
       y="612.01361"
       x="662.85687"
       style="font-size:63.74580383px;font-style:normal;font-variant:normal;font-weight:normal;font-stretch:normal;line-height:125%;letter-spacing:0px;word-spacing:0px;fill:#000000;fill-opacity:1;stroke:none;font-family:Classica;-inkscape-font-specification:Classica"
       xml:space="preserve"><tspan
         style="font-weight:bold;text-align:center;text-anchor:middle;-inkscape-font-specification:Classica Bold"
         y="612.01361"
         x="662.85687"
         id="tspan3156"
         sodipodi:role="line">PRESS ANY KEY</tspan><tspan
         style="font-weight:bold;text-align:center;text-anchor:middle;-inkscape-font-specification:Classica Bold"
         y="691.69586"
         x="662.85687"
         sodipodi:role="line"
         id="tspan3158">TO BEGIN</tspan></text>
    <g
       transform="translate(416.33365,11.428572)"
       id="g3160">
      <path
         style="fill:#f9f9f9;stroke:#000000;stroke-width:1px;stroke-linecap:butt;stroke-linejoin:miter;stroke-opacity:1"
         d="m 149.50258,937.205 186.87822,-186.87822 65.65991,0 -191.4239,191.42391 z"
         id="path3162"
         inkscape:connector-curvature="0"
         sodipodi:nodetypes="ccccc" />
      <path
         sodipodi:nodetypes="ccccc"
         inkscape:connector-curvature="0"
         id="path3164"
         d="m 161.62441,995.79385 -12.12183,-58.58885 61.11423,4.54569 11.76358,54.00382 z"
         style="fill:#e6e6e6;stroke:#000000;stroke-width:1px;stroke-linecap:butt;stroke-linejoin:miter;stroke-opacity:1" />
      <path
         sodipodi:nodetypes="ccccc"
         inkscape:connector-curvature="0"
         id="path3166"
         d="M 222.23356,995.79384 406.08133,801.84456 402.04071,750.32678 210.61681,941.75069 z"
         style="fill:#cccccc;stroke:#000000;stroke-width:1px;stroke-linecap:butt;stroke-linejoin:miter;stroke-opacity:1" />
    </g>
    <g
       transform="translate(485.02403,17.489487)"
       id="g3168">
      <path
         sodipodi:nodetypes="ccccc"
         inkscape:connector-curvature="0"
         id="path3170"
         d="m 149.50258,937.205 186.87822,-186.87822 65.65991,0 -191.4239,191.42391 z"
         style="fill:#f9f9f9;stroke:#000000;stroke-width:1px;stroke-linecap:butt;stroke-linejoin:miter;stroke-opacity:1" />
      <path
         style="fill:#e6e6e6;stroke:#000000;stroke-width:1px;stroke-linecap:butt;stroke-linejoin:miter;stroke-opacity:1"
         d="m 161.62441,995.79385 -12.12183,-58.58885 61.11423,4.54569 11.76358,54.00382 z"
         id="path3172"
         inkscape:connector-curvature="0"
         sodipodi:nodetypes="ccccc" />
      <path
         style="fill:#cccccc;stroke:#000000;stroke-width:1px;stroke-linecap:butt;stroke-linejoin:miter;stroke-opacity:1"
         d="M 222.23356,995.79384 406.08133,801.84456 402.04071,750.32678 210.61681,941.75069 z"
         id="path3174"
         inkscape:connector-curvature="0"
         sodipodi:nodetypes="ccccc" />
    </g>
    <g
       id="g3176"
       transform="translate(553.71439,23.550403)">
      <path
         style="fill:#f9f9f9;stroke:#000000;stroke-width:1px;stroke-linecap:butt;stroke-linejoin:miter;stroke-opacity:1"
         d="m 149.50258,937.205 186.87822,-186.87822 65.65991,0 -191.4239,191.42391 z"
         id="path3178"
         inkscape:connector-curvature="0"
         sodipodi:nodetypes="ccccc" />
      <path
         sodipodi:nodetypes="ccccc"
         inkscape:connector-curvature="0"
         id="path3180"
         d="m 161.62441,995.79385 -12.12183,-58.58885 61.11423,4.54569 11.76358,54.00382 z"
         style="fill:#e6e6e6;stroke:#000000;stroke-width:1px;stroke-linecap:butt;stroke-linejoin:miter;stroke-opacity:1" />
      <path
         sodipodi:nodetypes="ccccc"
         inkscape:connector-curvature="0"
         id="path3182"
         d="M 222.23356,995.79384 406.08133,801.84456 402.04071,750.32678 210.61681,941.75069 z"
         style="fill:#cccccc;stroke:#000000;stroke-width:1px;stroke-linecap:butt;stroke-linejoin:miter;stroke-opacity:1" />
    </g>
    <g
       transform="translate(623.41492,30.62147)"
       id="g3184">
      <path
         sodipodi:nodetypes="ccccc"
         inkscape:connector-curvature="0"
         id="path3186"
         d="m 149.50258,937.205 186.87822,-186.87822 65.65991,0 -191.4239,191.42391 z"
         style="fill:#f9f9f9;stroke:#000000;stroke-width:1px;stroke-linecap:butt;stroke-linejoin:miter;stroke-opacity:1" />
      <path
         style="fill:#e6e6e6;stroke:#000000;stroke-width:1px;stroke-linecap:butt;stroke-linejoin:miter;stroke-opacity:1"
         d="m 161.62441,995.79385 -12.12183,-58.58885 61.11423,4.54569 11.76358,54.00382 z"
         id="path3188"
         inkscape:connector-curvature="0"
         sodipodi:nodetypes="ccccc" />
      <path
         style="fill:#cccccc;stroke:#000000;stroke-width:1px;stroke-linecap:butt;stroke-linejoin:miter;stroke-opacity:1"
         d="M 222.23356,995.79384 406.08133,801.84456 402.04071,750.32678 210.61681,941.75069 z"
         id="path3190"
         inkscape:connector-curvature="0"
         sodipodi:nodetypes="ccccc" />
    </g>
    <g
       id="g3192"
       transform="translate(487.04433,-56.251651)">
      <path
         style="fill:#1a1a1a;stroke:#000000;stroke-width:1px;stroke-linecap:butt;stroke-linejoin:miter;stroke-opacity:1"
         d="M 164.65487,953.36744 300.01531,809.92578 357.594,808.91562 210.48297,953.72417 z"
         id="path3194"
         inkscape:connector-curvature="0"
         sodipodi:nodetypes="ccccc" />
      <path
         sodipodi:nodetypes="ccccc"
         inkscape:connector-curvature="0"
         id="path3196"
         d="m 161.62441,977.6111 2.02031,-24.24366 46.97209,-0.50507 11.76358,24.70939 z"
         style="fill:#4d4d4d;stroke:#000000;stroke-width:1px;stroke-linecap:butt;stroke-linejoin:miter;stroke-opacity:1" />
      <path
         sodipodi:nodetypes="ccccc"
         inkscape:connector-curvature="0"
         id="path3198"
         d="M 222.23356,977.61109 361.63462,829.11867 358.60415,807.90547 210.61681,951.85222 z"
         style="fill:#666666;stroke:#000000;stroke-width:1px;stroke-linecap:butt;stroke-linejoin:miter;stroke-opacity:1" />
    </g>
    <g
       transform="translate(564.82607,-56.251651)"
       id="g3200">
      <path
         sodipodi:nodetypes="ccccc"
         inkscape:connector-curvature="0"
         id="path3202"
         d="M 164.65487,953.36744 300.01531,809.92578 357.594,808.91562 210.48297,953.72417 z"
         style="fill:#1a1a1a;stroke:#000000;stroke-width:1px;stroke-linecap:butt;stroke-linejoin:miter;stroke-opacity:1" />
      <path
         style="fill:#4d4d4d;stroke:#000000;stroke-width:1px;stroke-linecap:butt;stroke-linejoin:miter;stroke-opacity:1"
         d="m 161.62441,977.6111 2.02031,-24.24366 46.97209,-0.50507 11.76358,24.70939 z"
         id="path3204"
         inkscape:connector-curvature="0"
         sodipodi:nodetypes="ccccc" />
      <path
         style="fill:#666666;stroke:#000000;stroke-width:1px;stroke-linecap:butt;stroke-linejoin:miter;stroke-opacity:1"
         d="M 222.23356,977.61109 361.63462,829.11867 358.60415,807.90547 210.61681,951.85222 z"
         id="path3206"
         inkscape:connector-curvature="0"
         sodipodi:nodetypes="ccccc" />
    </g>
    <g
       id="g3208"
       transform="translate(644.62812,-56.251651)">
      <path
         style="fill:#1a1a1a;stroke:#000000;stroke-width:1px;stroke-linecap:butt;stroke-linejoin:miter;stroke-opacity:1"
         d="M 164.65487,953.36744 300.01531,809.92578 357.594,808.91562 210.48297,953.72417 z"
         id="path3210"
         inkscape:connector-curvature="0"
         sodipodi:nodetypes="ccccc" />
      <path
         sodipodi:nodetypes="ccccc"
         inkscape:connector-curvature="0"
         id="path3212"
         d="m 161.62441,977.6111 2.02031,-24.24366 46.97209,-0.50507 11.76358,24.70939 z"
         style="fill:#4d4d4d;stroke:#000000;stroke-width:1px;stroke-linecap:butt;stroke-linejoin:miter;stroke-opacity:1" />
      <path
         sodipodi:nodetypes="ccccc"
         inkscape:connector-curvature="0"
         id="path3214"
         d="M 222.23356,977.61109 361.63462,829.11867 358.60415,807.90547 210.61681,951.85222 z"
         style="fill:#666666;stroke:#000000;stroke-width:1px;stroke-linecap:butt;stroke-linejoin:miter;stroke-opacity:1" />
    </g>
    <text
       sodipodi:linespacing="125%"
       id="text3216"
       y="368.15482"
       x="983.82886"
       style="font-size:38.7795105px;font-style:normal;font-variant:normal;font-weight:normal;font-stretch:normal;line-height:125%;letter-spacing:0px;word-spacing:0px;fill:#000000;fill-opacity:1;stroke:none;font-family:Classica;-inkscape-font-specification:Classica"
       xml:space="preserve"><tspan
         style="font-weight:bold;-inkscape-font-specification:Classica Bold"
         y="368.15482"
         x="983.82886"
         id="tspan3218"
         sodipodi:role="line">Prototype 0.1</tspan></text>
    <text
       xml:space="preserve"
       style="font-size:27.15527344px;font-style:normal;font-variant:normal;font-weight:normal;font-stretch:normal;line-height:125%;letter-spacing:0px;word-spacing:0px;fill:#000000;fill-opacity:1;stroke:none;font-family:Classica;-inkscape-font-specification:Classica"
       x="1144.2991"
       y="403.20053"
       id="text3220"
       sodipodi:linespacing="125%"><tspan
         id="tspan3224"
         sodipodi:role="line"
         x="1144.2991"
         y="403.20053"
         style="font-weight:bold;text-align:center;text-anchor:middle;-inkscape-font-specification:Classica Bold">&quot;Mary Had</tspan><tspan
         sodipodi:role="line"
         x="1144.2991"
         y="437.14462"
         style="font-weight:bold;text-align:center;text-anchor:middle;-inkscape-font-specification:Classica Bold"
         id="tspan3228">A Little Lamb&quot;</tspan></text>
  </g>
</svg>
